<?xml version="1.0" encoding="utf-8"?>
<svg viewBox="3040.052 2043.559 391.01 547.238" xmlns="http://www.w3.org/2000/svg">
  <g transform="matrix(0.222799, 0, 0, -0.222799, -200.042336, 4257.476001)" id="g400">
    <path id="path402" style="fill:#a9bece;fill-opacity:1;fill-rule:nonzero;stroke:none" d="m 14901.8,8718.36 c 0.5,5.66 1,11.31 1.5,17.07 -0.5,-5.76 -1,-11.41 -1.5,-17.07 m -60.7,-44.24 c -30.7,-22.66 -59.7,-44.62 -74.6,-57.04 25.9,22.68 51.3,41.34 74.6,57.1 v -0.06 m 1357.7,-712.2 c 39,67.95 67.7,147.49 83.5,228.93 15.2,81.65 17.7,164.44 13.7,241.03 -3.6,38.15 -5.6,75.18 -12.4,109.53 -2.9,17.22 -5.8,33.96 -8.6,50.16 -2.9,16.85 -7.4,32.71 -11.7,47.47 -4.1,13.23 -8.2,25.71 -12.6,37.63 -1,4.94 -2.2,10.01 -3.3,15.24 -2.3,10.7 -4.9,21.91 -8.7,33.41 -13.8,46.1 -36.3,100.09 -78.2,149.75 -21.5,24.23 -48.6,46.92 -81.5,62.2 -32.8,15.42 -71.3,22.04 -108.2,17.82 -6.6,-0.71 -13.2,-1.83 -19.8,-3.13 l -0.3,1.55 c -2.3,7.76 -5.4,15.87 -8.5,24.53 -3.8,8.39 -7.5,17.48 -12.8,26.41 -9.7,18.21 -23.7,36.82 -42,53.85 -18.3,16.93 -41.7,31.53 -68,40.46 -26.5,8.95 -54.8,12.7 -83.2,10.88 -27.2,-1.47 -55.5,-8.32 -81.4,-20.99 0.3,34.76 0.3,72.73 0,113.46 -0.5,50.87 -1.6,105.96 -3.2,164.24 -1.7,58.31 -4,120.18 -9.7,184.51 -6.2,64.35 -14.3,131.23 -35.3,199.62 -11,33.99 -24.7,69.16 -51.7,101.81 -13.5,16.05 -31.7,31.38 -54.3,40.3 -5.6,2.17 -11.3,4.31 -17.3,5.38 -5.9,1.41 -11.9,2.53 -17.8,2.74 -6,0.55 -11.8,0.79 -17.1,0.3 -5.4,-0.46 -10.8,-0.23 -16.3,-1.43 -22.1,-2.89 -44.4,-11.63 -62.4,-24.66 -18.4,-12.92 -32.6,-29.1 -44,-45.71 -11.5,-16.69 -19.9,-34.03 -26.9,-51.3 -7.2,-17.29 -12.4,-34.59 -17.1,-51.8 -17.9,-68.86 -24.1,-135.93 -28.2,-200.27 -3.9,-64.35 -4.8,-126.06 -5.6,-184.25 -0.8,-58.11 -1.3,-113.32 -1.2,-164.15 0,-46.2 0.6,-88.88 1.6,-127.33 -2,2.85 -4,5.7 -6.2,8.55 -17,21.03 -41,41.1 -70.7,54.44 -29.5,13.68 -63.7,19.37 -98.2,17.78 -34.6,-1.42 -72.6,-11.69 -103.9,-33.78 -31.5,-21.61 -55.4,-51.73 -72.6,-83.01 -17.7,-31.43 -28.2,-64.47 -36.4,-96.78 -2,-8.09 -3.8,-16.17 -5.7,-24.2 -1.3,-8.04 -2.7,-16.03 -4.1,-23.97 -3.1,-15.92 -4.2,-31.57 -6,-46.98 -2.1,-23.47 -3.2,-46.03 -3.8,-67.62 -38,-16.2 -83.4,-39.34 -133.2,-78.24 -14.8,-11.77 -29.8,-24.97 -44.4,-40.73 -14.8,-15.52 -29.2,-33.48 -41.8,-54.84 -12.6,-21.21 -23.4,-45.86 -29.4,-73.65 -1.2,-7 -2.4,-14.07 -3.5,-21.27 -0.4,-7.26 -0.8,-14.59 -1.2,-22.01 0.4,-12.76 0.8,-25.77 1.2,-39.04 6.7,-105.28 40,-212.83 90.9,-305.57 50.7,-93.09 116.3,-172.3 181.4,-231.55 64.8,-59.82 128.3,-100.13 173.6,-126.6 6.7,-3.45 12.8,-6.58 18.7,-9.52 -5.4,-5.86 -10.6,-12.35 -15.3,-20.1 -5.6,-8.9 -9.7,-19.93 -12.1,-31.75 -1.8,-12.79 -1.8,-22.97 -0.2,-34.39 1.1,-11.33 4.7,-22.73 9.1,-33.84 5,-10.8 11,-21.51 18.6,-30.72 15,-18.91 33.8,-33.78 53.8,-45.6 40.1,-23.69 84.6,-37.7 130.3,-48.23 91.8,-20.29 189.8,-26.02 287,-26.24 97.2,0.19 195.1,5.87 286.9,26.11 45.7,10.48 90.3,24.41 130.4,47.99 19.9,11.79 38.8,26.45 53.8,45.32 7.7,9.14 13.7,19.83 18.9,30.57 4.5,11.07 8.1,22.45 9.3,33.77 1,5.65 1.3,11.21 1.2,16.67 0.4,5.13 -0.4,11.58 -1.1,17.61 -2.2,11.92 -6.3,22.92 -11.9,31.94 -3.7,6.43 -8,11.9 -12.4,17 20.7,13.13 43,29.23 65.4,49.39 46.8,40.84 95.4,96.71 134.1,164.9"/>
  </g>
  <g transform="matrix(0.221213, 0, 0, -0.221213, -200.042336, 4257.476001)" id="g404">
    <path id="path406" style="fill:#ffffff;fill-opacity:1;fill-rule:nonzero;stroke:none" d="m 15993.1,7833.33 c 2.6,2.28 5.4,4.67 8.2,7.07 2.8,2.37 5.7,4.84 8.7,7.36 2.2,1.82 4.3,3.64 6.6,5.53 5.8,4.86 11.9,10.07 18.3,15.52 19.3,16.58 40.6,35.99 62,59.64 39.3,42.16 80,95.79 112.8,159.3 32.9,63.32 57.7,136.12 72.4,211.46 14.1,75.59 17.9,153.13 17.2,226.07 -2.1,36.47 -2.1,71.91 -6.4,105.39 -1.2,11.97 -2.2,23.62 -3.3,35.1 -0.5,4.63 -0.9,9.3 -1.4,13.84 -1.3,15.16 -4.1,29.7 -6.7,44.04 -2.5,12.98 -5.2,25.34 -7.9,37.21 -1.6,6.78 -3.1,13.38 -4.7,19.77 -3.1,7.87 -6.4,15.91 -10.3,24.01 -18,40.5 -42.7,86.06 -77.9,123.4 -17.9,18.05 -38.4,33.46 -60.9,43.2 -22.5,9.77 -46.9,13.59 -71.4,10.89 -7.8,-0.86 -15.5,-2.47 -23.1,-4.41 -1.1,-1.57 -2.2,-2.6 -3.5,-2.9 -1,-0.23 -2.1,-0.03 -3.2,0.37 l -0.8,0.39 c -4.6,2.34 -10.1,9.89 -16.8,21.37 -1.2,1.95 -2.3,3.99 -3.5,6.17 -2.7,4.64 -5.5,9.79 -8.4,15.41 -3.3,5.41 -6.7,11.27 -10.1,17.51 -0.6,0.85 -1.2,1.85 -1.7,2.71 -3.3,5.23 -6.6,10.6 -10.2,16.36 -4.7,6.22 -9,13.17 -14.3,19.51 -20.6,26.19 -49.2,50.07 -85.4,59.48 -17.9,4.76 -38.1,6.6 -58.3,4.56 -20.1,-1.78 -39.2,-6.92 -56.6,-15.72 -11.7,-6.28 -22.3,-14.51 -32.2,-23.91 -1.4,-42.63 -3.5,-76.63 -6.2,-100.08 -2.7,-23.88 -6.1,-36.88 -9.8,-36.91 -1.9,-0.03 -3.6,2.98 -5.3,8.64 -2,6.49 -4,16.56 -6,29.93 -2.2,14.54 -4.4,32.88 -6.6,54.71 -1.4,13.61 -2.8,28.61 -4.1,44.79 -1.6,18.05 -3.2,37.63 -4.8,58.61 -3.3,42.39 -6.8,90.41 -10.4,143.02 -3.5,50.96 -7.2,106.17 -11.1,164.55 -4,58.31 -8.2,119.47 -15.3,181.89 -7.4,62.11 -16.7,126.55 -35.9,185.93 -9.5,29.3 -22.2,57.71 -38.8,77.16 -8.3,9.67 -17.1,16.38 -26.1,19.86 -2.3,0.82 -4.5,1.87 -7,2.12 -2.3,0.58 -4.7,1.17 -7.3,1.1 -2.5,0.25 -5.1,0.49 -8.3,0.1 -2.9,-0.35 -6.2,0.07 -8.9,-0.74 -23.1,-2.78 -41.6,-16.86 -57.3,-39.53 -7.8,-11.09 -14.5,-24.21 -20.1,-38.07 -5.9,-13.73 -10.6,-28.57 -14.9,-43.53 -16.6,-60.53 -24.1,-125.09 -29.5,-187.63 -5.3,-62.71 -8.1,-124.13 -11.2,-182.64 -3.3,-58.47 -6.3,-113.75 -9.2,-164.78 -5,-84.19 -9.2,-156.69 -13.3,-212.9 -1.5,-21.63 -3.1,-40.83 -4.7,-57.36 -0.2,-2.2 -0.4,-4.41 -0.6,-6.51 -0.7,-7.63 -1.5,-14.55 -2.2,-20.87 -3.3,-27.34 -6.7,-42.35 -10.5,-42.48 l -1.5,0.64 c -3.5,2.75 -6.8,15.47 -9.7,36.86 -2.7,19.36 -5,45.8 -6.9,78.21 -11.9,21.41 -27.8,46.88 -50.9,69.11 -15,14.28 -33.3,26.22 -54.4,33.62 -20.8,7.67 -45.4,10.09 -70.4,7.63 -24.6,-2.49 -48.3,-9.87 -68,-24.68 -19.9,-14.46 -36.7,-35.31 -50.2,-59.67 -13.7,-24.18 -23.2,-52.2 -31,-80.32 -1.9,-7.12 -3.8,-14.2 -5.6,-21.25 -1.5,-7.23 -3,-14.43 -4.4,-21.59 -3.4,-14.19 -5.1,-28.8 -7.4,-42.94 -1.7,-11.94 -3.2,-23.83 -4.6,-35.62 -1.7,-14.74 -3.2,-29.28 -4.5,-43.53 -0.6,-5.81 -1.1,-11.5 -1.6,-17.19 -49.3,-35.46 -121.6,-88.74 -141.4,-106.49 -11.8,-10.74 -23.6,-22.35 -34.4,-35.2 -11,-12.7 -21.2,-26.6 -29.4,-41.6 -8.2,-14.96 -14.7,-30.93 -18.1,-47.72 -0.6,-4.2 -1.2,-8.45 -1.9,-12.74 -0.2,-4.32 -0.4,-8.68 -0.6,-13.08 0.4,-10.91 0.7,-22.04 1.2,-33.38 5.9,-91.46 32.6,-188.34 75.2,-274.86 37.5,-77 85.4,-146.71 134.8,-204.63 45.6,-74.05 107.5,-138.47 181.6,-190.2 3.5,-2.46 7.1,-4.79 10.7,-7.2 4.1,-2.72 8.1,-5.51 12.2,-8.15 1.6,-1.07 3.3,-2.1 5,-3.15 3.8,-2.4 7.7,-4.69 11.6,-7.02 1.4,-0.85 2.8,-1.72 4.2,-2.55 2.2,-3.23 3,-5.57 2.2,-6.9 -1.3,-2.06 -6.4,-1.57 -14.9,1.16 -4.1,-4.35 -7.8,-8.95 -11,-13.71 -2.3,-3.41 -4.4,-6.87 -5.9,-10.4 -2.7,-5.31 -3.7,-10.6 -4.3,-15.67 0,-4.3 0.3,-11.95 2,-18.23 5,-25.84 26.5,-48.25 58.9,-64.99 32.1,-16.74 72,-27.97 114.2,-36.08 85,-15.87 180.1,-20.25 274.9,-20.37 94.9,0.1 190,4.43 275,20.24 42.2,8.07 82.2,19.25 114.3,35.93 32.5,16.62 54.2,39.02 59.4,64.76 3,14.5 3,23.01 -2,33.98 -1.6,3.67 -3.8,7.28 -6.1,10.83 -1.3,1.87 -2.6,3.73 -4,5.56 -6,-3.19 -11.9,-6.19 -17.2,-8.84 -22,-9.16 -38.1,-14.32 -47.5,-15.34 -4.9,-0.53 -8,0.03 -9,1.87 -2.7,5.51 12.3,19.88 39.6,40.81"/>
  </g>
  <g transform="matrix(0.210128, 0, 0, -0.210128, -200.042336, 4257.476001)" id="g408">
    <path id="path410" style="fill:#b8c7e6;fill-opacity:1;fill-rule:nonzero;stroke:none" d="m 16300,8132.21 c -185.9,6.81 -327.5,32.28 -349.9,89.02 3.3,5 7.2,9.84 11.5,14.42 5.2,-1.68 9.3,-2.55 12,-2.55 1.9,0 3.1,0.43 3.7,1.33 0.2,0.35 0.3,0.77 0.3,1.25 0,1.45 -0.9,3.47 -2.6,6.01 94.9,-56.46 205.4,-94.63 325,-109.48"/>
  </g>
  <g transform="matrix(0.217565, 0, 0, -0.217565, -200.042336, 4257.476001)" id="g412">
    <path id="path414" style="fill:#b8c7e6;fill-opacity:1;fill-rule:nonzero;stroke:none" d="m 15984.4,7855.17 c 89.8,10.7 172.3,32.72 245.8,66.12 9.5,1.03 25.9,6.28 48.2,15.6 5.4,2.69 11.4,5.74 17.6,8.98 1.4,-1.85 2.7,-3.75 4,-5.65 -20.8,-52.5 -147.3,-77.28 -315.6,-85.05"/>
  </g>
  <g transform="matrix(0.202524, 0, 0, -0.202524, -200.042336, 4257.476001)" id="g416">
    <path id="path418" style="fill:#b8c7e6;fill-opacity:1;fill-rule:nonzero;stroke:none" d="m 16249.5,9379.97 c -56.5,0.01 -31.7,107.78 28.6,198.03 0.1,-5.36 0.3,-10.72 0.5,-15.94 3.6,-81.55 11.9,-141.47 21.4,-164.6 -21.3,-12.13 -37.9,-17.49 -50.5,-17.49"/>
  </g>
  <g transform="matrix(0.222191, 0, 0, -0.222191, -200.042336, 4257.476001)" id="g420">
    <path id="path422" style="fill:#303030;fill-opacity:1;fill-rule:nonzero;stroke:none" d="m 15964.4,7834.19 c -6.4,-5.43 -12.5,-10.61 -18.3,-15.45 -2.3,-1.88 -4.4,-3.7 -6.5,-5.51 -3,-2.5 -5.9,-4.97 -8.7,-7.32 -2.8,-2.4 -5.6,-4.78 -8.2,-7.04 -27.2,-20.85 -42.1,-35.15 -39.3,-40.63 0.9,-1.84 4,-2.39 8.9,-1.87 9.3,1.01 25.3,6.15 47.2,15.28 5.3,2.64 11.2,5.62 17.2,8.79 1.4,-1.81 2.7,-3.66 4,-5.52 2.3,-3.54 4.5,-7.13 6.1,-10.79 5,-10.92 4.9,-19.4 2,-33.83 -5.3,-25.62 -26.8,-47.93 -59.2,-64.47 -32,-16.61 -71.8,-27.74 -113.8,-35.77 -84.7,-15.75 -179.3,-20.05 -273.8,-20.16 -94.4,0.13 -189,4.49 -273.6,20.28 -42.1,8.07 -81.8,19.26 -113.8,35.92 -32.3,16.67 -53.6,38.98 -58.7,64.7 -1.6,6.26 -1.9,13.88 -1.9,18.16 0.6,5.04 1.6,10.32 4.2,15.6 1.6,3.51 3.7,6.95 6,10.36 3.1,4.73 6.8,9.31 10.9,13.64 8.4,-2.71 13.5,-3.2 14.8,-1.16 0.8,1.33 0,3.67 -2.2,6.87 -1.4,0.84 -2.8,1.7 -4.2,2.54 -3.8,2.33 -7.7,4.6 -11.5,7 -1.7,1.05 -3.3,2.07 -5,3.13 -4.1,2.63 -8.1,5.41 -12.1,8.12 -3.6,2.39 -7.2,4.71 -10.7,7.17 -73.8,51.5 -135.4,115.63 -180.8,189.36 -49.2,57.66 -96.8,127.07 -134.1,203.72 -42.5,86.15 -69.1,182.6 -75,273.65 -0.4,11.3 -0.8,22.37 -1.1,33.24 0.1,4.38 0.4,8.72 0.6,13.02 0.6,4.28 1.3,8.5 1.9,12.69 3.3,16.71 9.8,32.61 18,47.5 8.1,14.95 18.3,28.78 29.3,41.43 10.7,12.79 22.5,24.34 34.2,35.04 27.7,24.87 54.9,44.85 79.9,61.7 0,-1.14 0.1,-2.23 0.1,-3.37 0.2,-4.9 0.3,-9.77 0.5,-14.53 3.3,-74.34 10.8,-128.95 19.5,-150.03 l 0.1,-0.07 c 2.6,-6.22 5.2,-9.64 7.9,-9.59 8.3,0.16 14.1,28.42 19.4,74.95 2,17.04 3.8,36.51 5.7,58.01 0.8,8.28 1.5,16.75 2.2,25.59 1.6,18.08 3.2,37.45 4.9,57.65 0.7,7.49 1.4,15.11 2.1,22.82 1.3,14.19 2.8,28.68 4.6,43.34 1.3,11.75 2.8,23.58 4.5,35.47 2.3,14.08 4,28.62 7.4,42.75 1.4,7.13 2.8,14.29 4.3,21.49 1.9,7.02 3.8,14.07 5.6,21.16 7.8,28.01 17.3,55.89 31,79.97 13.3,24.25 30.1,45.01 49.9,59.41 19.6,14.74 43.1,22.09 67.7,24.56 24.8,2.46 49.3,0.04 70.1,-7.59 20.9,-7.37 39.2,-19.26 54.1,-33.47 23.1,-22.14 38.8,-47.5 50.7,-68.81 2,-32.27 4.2,-58.59 6.9,-77.87 2.9,-21.29 6.2,-33.95 9.6,-36.69 l 1.5,-0.64 c 3.8,0.13 7.2,15.07 10.5,42.29 0.7,6.3 1.5,13.19 2.2,20.78 0.2,2.1 0.4,4.3 0.6,6.49 1.6,16.45 3.1,35.56 4.7,57.1 4,55.96 8.3,128.15 13.2,211.96 2.9,50.81 5.9,105.85 9.2,164.06 3.1,58.26 5.8,119.4 11.1,181.84 5.4,62.26 12.9,126.53 29.4,186.8 4.2,14.89 8.9,29.67 14.8,43.34 5.6,13.79 12.2,26.86 20,37.9 15.7,22.57 34.1,36.59 57.1,39.35 2.7,0.81 5.9,0.39 8.9,0.75 3.2,0.38 5.7,0.15 8.2,-0.1 2.6,0.05 5,-0.53 7.3,-1.1 2.4,-0.25 4.6,-1.29 6.9,-2.12 9,-3.45 17.8,-10.13 26,-19.76 16.5,-19.38 29.2,-47.65 38.7,-76.83 19,-59.12 28.3,-123.27 35.7,-185.1 7,-62.15 11.2,-123.03 15.2,-181.1 3.9,-58.13 7.6,-113.09 11.1,-163.82 3.6,-52.38 7,-100.19 10.3,-142.4 1.6,-20.88 3.2,-40.38 4.8,-58.35 1.3,-16.11 2.7,-31.04 4.1,-44.59 2.2,-21.73 4.4,-40 6.5,-54.46 2,-13.32 4,-23.34 6,-29.81 1.7,-5.63 3.5,-8.62 5.3,-8.6 3.7,0.04 7,12.97 9.7,36.75 2.7,23.34 4.8,57.19 6.3,99.64 9.8,9.36 20.4,17.55 32,23.8 17.3,8.76 36.3,13.88 56.3,15.65 20.1,2.04 40.3,0.21 58.1,-4.53 36.1,-9.38 64.5,-33.14 85,-59.22 5.3,-6.31 9.6,-13.23 14.3,-19.43 3.5,-5.74 6.9,-11.08 10.1,-16.29 0.5,-0.86 1.1,-1.85 1.7,-2.69 3.4,-6.22 6.8,-12.05 10.1,-17.44 2.8,-5.59 5.6,-10.71 8.3,-15.34 1.2,-2.17 2.3,-4.2 3.5,-6.14 6.6,-11.44 12.1,-18.95 16.7,-21.28 l 0.9,-0.39 c 1,-0.39 2.1,-0.59 3.1,-0.37 1.3,0.31 2.5,1.33 3.5,2.89 7.5,1.94 15.2,3.54 23,4.39 24.4,2.69 48.7,-1.1 71.1,-10.84 22.4,-9.69 42.8,-25.04 60.6,-43.01 35,-37.18 59.6,-82.53 77.6,-122.86 3.9,-8.07 7.2,-16.06 10.2,-23.9 1.6,-6.36 3.1,-12.94 4.7,-19.68 2.7,-11.83 5.3,-24.13 7.9,-37.05 2.6,-14.28 5.4,-28.76 6.7,-43.85 0.4,-4.52 0.8,-9.17 1.3,-13.77 1.1,-11.43 2.2,-23.03 3.3,-34.95 4.3,-33.33 4.3,-68.61 6.4,-104.93 0.7,-72.62 -3.1,-149.81 -17.1,-225.07 -14.7,-75.02 -39.3,-147.49 -72.2,-210.53 -32.5,-63.23 -73.1,-116.62 -112.2,-158.6 -21.3,-23.55 -42.5,-42.87 -61.7,-59.38 z m 234.1,185.19 c 39.1,68.14 67.8,147.89 83.7,229.56 15.3,81.86 17.8,164.88 13.8,241.68 -3.6,38.25 -5.7,75.39 -12.5,109.83 -2.9,17.27 -5.8,34.06 -8.5,50.3 -3,16.9 -7.6,32.79 -11.9,47.6 -4,13.26 -8.2,25.78 -12.5,37.74 -1.1,4.95 -2.3,10.03 -3.3,15.27 -2.3,10.73 -5,21.97 -8.8,33.51 -13.8,46.22 -36.4,100.37 -78.4,150.16 -21.6,24.29 -48.7,47.04 -81.8,62.37 -32.8,15.45 -71.4,22.11 -108.4,17.87 -6.6,-0.72 -13.3,-1.84 -19.8,-3.14 l -0.4,1.55 c -2.3,7.78 -5.4,15.92 -8.5,24.6 -3.9,8.41 -7.6,17.52 -12.8,26.48 -9.7,18.27 -23.9,36.93 -42.2,53.99 -18.3,16.99 -41.7,31.62 -68.2,40.57 -26.5,8.99 -54.8,12.74 -83.3,10.92 -27.3,-1.47 -55.7,-8.34 -81.7,-21.06 0.3,34.86 0.3,72.94 0,113.78 -0.5,51.01 -1.6,106.25 -3.2,164.69 -1.7,58.46 -4,120.5 -9.7,185.02 -6.3,64.52 -14.3,131.59 -35.4,200.16 -11.1,34.09 -24.8,69.35 -51.8,102.09 -13.6,16.09 -31.8,31.46 -54.5,40.4 -5.7,2.19 -11.3,4.33 -17.3,5.41 -6,1.41 -11.9,2.53 -17.9,2.75 -6,0.55 -11.8,0.78 -17.1,0.3 -5.5,-0.47 -10.9,-0.23 -16.5,-1.45 -22,-2.9 -44.4,-11.65 -62.5,-24.72 -18.4,-12.95 -32.6,-29.18 -44,-45.83 -11.6,-16.73 -20,-34.13 -27,-51.44 -7.2,-17.34 -12.5,-34.7 -17.3,-51.94 -17.9,-69.06 -24.1,-136.31 -28.2,-200.82 -3.9,-64.53 -4.8,-126.41 -5.6,-184.76 -0.8,-58.27 -1.3,-113.62 -1.2,-164.6 0,-46.32 0.6,-89.12 1.6,-127.66 -2,2.85 -4,5.7 -6.2,8.56 -17.1,21.08 -41.1,41.21 -70.8,54.58 -29.7,13.73 -64,19.43 -98.5,17.83 -34.7,-1.42 -72.9,-11.71 -104.2,-33.87 -31.6,-21.65 -55.6,-51.87 -72.9,-83.24 -17.6,-31.51 -28.3,-64.63 -36.5,-97.03 -1.9,-8.12 -3.8,-16.22 -5.7,-24.27 -1.4,-8.06 -2.7,-16.08 -4.1,-24.05 -3,-15.94 -4.2,-31.65 -6,-47.1 -2.1,-23.53 -3.2,-46.15 -3.8,-67.8 -38.1,-16.25 -83.6,-39.45 -133.6,-78.46 -14.7,-11.8 -29.9,-25.04 -44.6,-40.84 -14.7,-15.56 -29.3,-33.57 -41.8,-54.98 -12.6,-21.28 -23.5,-45.99 -29.5,-73.85 -1.2,-7.02 -2.4,-14.13 -3.4,-21.33 -0.5,-7.29 -0.9,-14.65 -1.3,-22.09 0.4,-12.79 0.8,-25.83 1.2,-39.14 6.8,-105.55 40,-213.4 91.1,-306.4 50.9,-93.33 116.6,-172.78 181.9,-232.19 65,-59.97 128.6,-100.4 174.2,-126.94 6.6,-3.47 12.8,-6.61 18.7,-9.55 -5.5,-5.87 -10.7,-12.38 -15.4,-20.15 -5.6,-8.94 -9.7,-19.98 -12.1,-31.84 -1.8,-12.83 -1.8,-23.04 -0.2,-34.48 1.1,-11.37 4.7,-22.79 9.2,-33.94 4.9,-10.82 11,-21.56 18.6,-30.8 15,-18.97 33.9,-33.86 53.9,-45.73 40.2,-23.76 84.9,-37.79 130.7,-48.35 92.1,-20.35 190.3,-26.1 287.7,-26.31 97.5,0.19 195.7,5.88 287.7,26.17 45.9,10.5 90.6,24.48 130.8,48.12 20,11.83 38.9,26.53 54,45.45 7.7,9.15 13.7,19.88 18.8,30.66 4.6,11.1 8.2,22.51 9.5,33.86 0.9,5.66 1.2,11.23 1.2,16.71 0.3,5.15 -0.5,11.62 -1.2,17.66 -2.2,11.94 -6.3,22.98 -11.9,32.03 -3.7,6.44 -8,11.92 -12.4,17.05 20.8,13.16 43.1,29.3 65.6,49.53 46.9,40.95 95.6,96.96 134.4,165.34"/>
  </g>
  <g transform="matrix(0.209191, 0, 0, -0.209191, -200.042336, 4257.476001)" id="g424">
    <path id="path426" style="fill:#303030;fill-opacity:1;fill-rule:nonzero;stroke:none" d="m 16220.1,9108.19 c -4.7,11.2 -9.6,17.36 -14.6,17.11 -12.1,-0.61 -19.3,-37.93 -21.6,-94.68 -2.5,-65 1.4,-155.47 11.8,-245.58 9.4,-84.36 24.8,-168.31 42.2,-230.13 17.5,-61.91 36.9,-101.22 49.2,-98.28 12.9,3.05 12.6,45.76 8.1,108.35 -4.4,62.7 -13.1,145.66 -22.4,228.82 -15.4,133.9 -33,267.97 -52.7,314.39"/>
  </g>
  <g transform="matrix(0.212697, 0, 0, -0.212697, -200.042336, 4257.476001)" id="g428">
    <path id="path430" style="fill:#303030;fill-opacity:1;fill-rule:nonzero;stroke:none" d="m 16249.1,8317.24 c 50.9,1.16 36,658.8 -14.9,657.65 -50.9,-1.15 -35.9,-658.8 14.9,-657.65"/>
  </g>
  <g transform="matrix(0.216183, 0, 0, -0.216183, -200.042336, 4257.476001)" id="g432">
    <path id="path434" style="fill:#303030;fill-opacity:1;fill-rule:nonzero;stroke:none" d="m 16272.4,8830.18 c -6.7,0.04 -12.6,-11.05 -17.8,-30.2 -10.4,-38.03 -18.7,-108.1 -26.8,-187.52 -3.4,-33.57 -6.8,-68.79 -10.3,-103.95 -7.5,-80.26 -15.6,-160.26 -19.8,-220.78 -4.1,-60.52 -4.6,-101.41 7.4,-104.59 12.2,-3.23 31.4,34.99 48.1,94.88 16.8,59.86 31.4,141.31 39.1,223.28 5.4,53.97 7.7,107.97 7.6,156.19 -0.2,64.23 -4.8,118.09 -12.6,147.81 -4.2,15.82 -9.2,24.88 -14.9,24.88"/>
  </g>
</svg>