<?xml version="1.0" encoding="utf-8"?>
<svg viewBox="2074.98 2057.743 482.3 535.285" xmlns="http://www.w3.org/2000/svg">
  <g transform="matrix(0.169192, 0, 0, -0.169192, -200.042336, 4257.476001)" id="g320">
    <path id="path322" style="fill:#a9bece;fill-opacity:1;fill-rule:nonzero;stroke:none" d="m 14854.5,11675.4 c -1,4.3 -1.9,8.5 -2.9,12.8 1.8,-4.6 3.7,-8.6 5.3,-12.1 -0.8,-0.2 -1.6,-0.5 -2.4,-0.7 z m 1311.4,-1200.1 c 51.7,90.1 89.7,195.5 110.7,303.4 20.2,108.2 23.4,217.9 18.2,319.4 -4.8,50.5 -7.6,99.6 -16.5,145.1 -3.9,22.8 -7.7,45 -11.4,66.5 -3.9,22.3 -9.9,43.3 -15.6,62.9 -4.3,14.1 -8.7,27.6 -13.3,40.6 -0.1,2.5 -0.3,5 -0.3,7.4 l 0.4,8.3 0.7,10.7 c 0.5,7.3 1.1,14.6 1.6,22.1 8,118.6 14.8,255.7 27.5,402.1 6.1,73 14.5,148.9 20.3,227.5 5.5,78.6 9.8,159.3 2,243.2 -2,21 -4.9,42.3 -9.7,63.9 -4.7,21.6 -10.6,43.5 -20.7,65.7 -10,22.1 -23.9,45.1 -45.8,64.4 -21.4,19.5 -52.1,31.5 -79.3,33.8 -25.2,3.1 -53.1,0.1 -78.2,-9.3 -25.2,-9.2 -46.8,-24.3 -64.1,-40.9 -17.5,-16.6 -31.1,-34.8 -42.4,-53.1 -11.5,-18.3 -20.8,-36.8 -28.9,-55.2 -31.9,-73.9 -47.9,-145.9 -61.4,-213.8 -12.4,-64.9 -21,-126 -28.4,-182.7 -1.8,52.9 -4.4,108.9 -7.8,167.7 -4.1,71.3 -8.7,146.6 -16.6,225 -8,78.4 -18.9,159.8 -39.5,242.8 -10.9,41.4 -23.8,83.4 -44.3,125.2 -10,20.8 -22.3,41.7 -38.6,61.6 -16,19.7 -36.8,38.9 -63.3,52.1 -26.2,13.4 -58.7,18.3 -85.5,15.5 -26.5,-1.9 -54.6,-9.3 -78.9,-23.6 -24.4,-14 -44.4,-33.2 -59.8,-53.5 -15.8,-20.4 -27.1,-42 -36.2,-63.4 -1.8,-4.2 -3.2,-8.4 -4.7,-12.5 -1.5,6.4 -2.9,12.9 -4.5,19.5 -11.2,44.4 -25.6,89.6 -51.1,134.2 -12.8,22.1 -28.9,44.3 -51.5,63.5 -22.1,19.1 -52,34 -83.2,38.2 -7.5,0.7 -15.4,1.5 -22.9,1.8 l -21.2,-1 c -14.3,-1.6 -28.7,-3.8 -42.7,-8.7 -28.1,-8.9 -53.8,-25 -74.1,-44.1 -20.6,-19.1 -35.8,-40.9 -48.5,-62.8 -12.7,-21.9 -22.3,-44.3 -30.5,-66.5 -16.1,-44.5 -26.4,-88.8 -34,-132.2 -7.7,-43.5 -12.8,-86.2 -16.8,-128.1 -7.6,-83.8 -10.5,-164.1 -12.6,-239.9 -1.6,-75.5 -3.1,-147 -4.5,-212.9 -1.9,-114.1 -2.3,-211.8 -0.8,-286.1 -11.8,71 -29.8,162.6 -52.9,268.7 -13.6,63 -28.6,131.5 -47.2,203.8 -18.7,72.3 -40.4,148.5 -70.6,226.3 -15.3,38.8 -32.3,78.2 -54.7,117 -22.7,38.6 -48.8,78.2 -91.5,110.9 -21.2,16 -47.8,29.7 -77.9,34.7 -7.5,1.5 -15,2.3 -22.7,2.2 -7.6,0.3 -15.2,0.2 -22.5,-1 -7.5,-0.8 -14.9,-1.9 -21.3,-3.8 -6.7,-1.8 -13.4,-3 -20,-5.5 -26.7,-8.6 -52.2,-24.8 -72.4,-44.6 -20.2,-20 -35.2,-43.4 -46.3,-67 -21.1,-47.4 -29.2,-94.9 -33.2,-140.7 -4,-45.9 -3.1,-90.5 -0.8,-134.2 5.2,-87.3 17.4,-170.9 30.6,-251.1 27,-159.8 56.7,-306.7 82.4,-433.5 18.6,-90.2 35.8,-169.5 51,-234.1 2.2,-20.6 4.3,-42.2 6.2,-64.8 2.5,-32.5 4.7,-67.2 4.1,-102.5 -0.3,-17.4 -1.5,-35.8 -4.4,-50.7 -1.4,-4.9 -3.7,-11.6 -9.7,-10.6 -2.8,0.2 -4.9,1 -7.5,2.3 -5.2,1.9 -14.5,6.9 -22,11 -16,9.9 -32.6,21.2 -49.2,34.3 -33.3,25.9 -67.3,55.6 -102.1,86.4 -34.9,31.2 -70.8,63.2 -107.5,96 -18.5,16.3 -37.3,32.9 -56.2,49.6 -9.8,8.3 -18.5,16.4 -29.2,25.2 -10.8,8.6 -21.2,17.6 -32.9,25.5 -45.3,32.8 -99,59.9 -159.4,71 -60.1,11.8 -126.5,4.6 -184.3,-22.6 -28.9,-13.6 -55.7,-31.9 -79.1,-54.2 -23.4,-22.5 -43.8,-48.8 -57.9,-80.4 -14,-31.1 -23.3,-68.8 -14,-110.2 2.1,-10.2 6.4,-20.4 10.7,-29.9 l 12.2,-21.2 c 4,-7.4 8.7,-13.4 13.2,-19.7 4.5,-6.2 8.9,-12.8 13.8,-18.5 37.8,-46.6 78.5,-84.6 118.2,-122.3 39.8,-37.5 79.2,-73.8 116.7,-110.9 75,-74.1 143.4,-151 199.7,-232.4 7.1,-10.2 14.1,-20.4 21.2,-30.5 7.3,-10.6 14.5,-21.2 21.7,-31.7 14.1,-21.2 28.9,-41.7 43.7,-61.9 29.1,-40.6 59.3,-79.3 89.6,-116.2 60.5,-74 123.5,-139.5 186.3,-195.3 62.5,-55.9 126,-101 185.6,-134.9 44.8,-25.6 87.7,-44.6 126,-58.4 -4.7,-5.8 -9.2,-11.9 -13.3,-18.8 -7.5,-11.8 -12.9,-26.4 -16,-42.1 -2.4,-16.9 -2.5,-30.4 -0.4,-45.5 1.5,-15 6.3,-30.1 12.2,-44.9 6.6,-14.3 14.6,-28.5 24.6,-40.68 19.8,-25.06 44.8,-44.74 71.2,-60.41 53.2,-31.42 112.1,-49.96 172.8,-63.91 121.5,-26.89 251.4,-34.49 380.2,-34.77 128.7,0.25 258.5,7.77 380.1,34.58 60.7,13.89 119.7,32.35 172.9,63.6 26.4,15.62 51.4,35.05 71.3,60.05 10.1,12.14 18.2,26.24 25,40.54 5.9,14.6 10.7,29.7 12.4,44.7 1.2,7.5 1.6,14.9 1.6,22.1 0.4,6.8 -0.6,15.4 -1.6,23.3 -2.9,15.8 -8.3,30.4 -15.6,42.4 -5,8.5 -10.7,15.7 -16.5,22.5 27.5,17.4 57,38.7 86.7,65.4 62,54.2 126.3,128.2 177.6,218.5"/>
  </g>
  <g transform="matrix(0.164711, 0, 0, -0.164711, -200.042336, 4257.476001)" id="g324">
    <path id="path326" style="fill:#ffffff;fill-opacity:1;fill-rule:nonzero;stroke:none" d="m 15010.4,10419.1 c 0,-173.6 288.7,-231.3 644.8,-231.3 356.1,0 644.8,57.7 644.8,231.3 0,127.8 -288.7,231.3 -644.8,231.3 -356.1,0 -644.8,-103.5 -644.8,-231.3"/>
  </g>
  <g transform="matrix(0.16426, 0, 0, -0.16426, -200.042336, 4257.476001)" id="g328">
    <path id="path330" style="fill:#b8c7e6;fill-opacity:1;fill-rule:nonzero;stroke:none" d="m 15096.3,10513.3 c 0,-113.8 269.5,-151.6 601.8,-151.6 332.4,0 601.9,37.8 601.9,151.6 0,83.6 -269.5,151.5 -601.9,151.5 -332.3,0 -601.8,-67.9 -601.8,-151.5"/>
  </g>
  <g transform="matrix(0.165079, 0, 0, -0.165079, -200.042336, 4257.476001)" id="g332">
    <path id="path334" style="fill:#303030;fill-opacity:1;fill-rule:nonzero;stroke:none" d="m 15049.1,10480.7 c 25.2,24.4 54.2,41.7 77.6,55.8 47.6,28 77.6,42.6 74.8,51 -2.2,7.2 -36.1,6.8 -92.6,-11.5 -28,-9.6 -62.3,-22.5 -98.3,-48.9 -17.8,-13.2 -36.6,-29.9 -51.5,-54.6 -7.6,-12.1 -13.2,-27.1 -16.4,-43.1 -2.5,-17.4 -2.5,-31.2 -0.4,-46.7 1.7,-15.4 6.4,-30.9 12.5,-46 6.8,-14.7 15,-29.2 25.3,-41.7 20.3,-25.7 45.9,-45.9 73,-61.9 54.4,-32.2 114.9,-51.2 177,-65.6 124.7,-27.5 257.7,-35.3 389.7,-35.6 131.9,0.3 265,8 389.7,35.5 62.1,14.2 122.6,33.1 177,65.1 27.2,16.1 52.8,36 73.2,61.6 10.4,12.4 18.7,26.9 25.5,41.5 6.2,15 11,30.5 12.8,45.9 1.2,7.7 1.7,15.2 1.6,22.6 0.4,7 -0.6,15.7 -1.6,23.9 -2.9,16.2 -8.5,31.2 -16,43.4 -14.8,24.9 -33.5,41.7 -51.3,55.1 -35.9,26.4 -70.2,39.4 -98.2,49.1 -56.5,18.4 -90.4,18.9 -92.6,11.6 -2.7,-8.4 27.2,-23 74.8,-51.1 23.4,-14.1 52.2,-31.5 77.3,-55.9 12.4,-12.1 23.8,-26 30.1,-40.4 6.8,-14.8 6.7,-26.3 2.7,-45.8 -7.1,-34.7 -36.3,-64.9 -80,-87.3 -43.4,-22.5 -97.3,-37.6 -154.2,-48.5 -114.7,-21.3 -242.9,-27.1 -370.8,-27.3 -127.9,0.2 -256.1,6.1 -370.7,27.5 -56.9,10.9 -110.8,26.1 -154.1,48.7 -43.6,22.5 -72.5,52.7 -79.4,87.6 -2.3,8.4 -2.6,18.8 -2.6,24.6 0.9,6.8 2.1,13.9 5.8,21.1 6.3,14.4 17.8,28.3 30.3,40.3"/>
  </g>
  <g transform="matrix(0.169492, 0, 0, -0.169492, -200.042336, 4257.476001)" id="g336">
    <path id="path338" style="fill:#ffffff;fill-opacity:1;fill-rule:nonzero;stroke:none" d="m 15213.5,10034 c 589.7,0 1086.5,442 945.5,1277.6 -45.8,271 -472.8,439.8 -945.5,439.8 -390.1,0 -696.9,-84.9 -845.4,-406.2 57,-202.8 -110.1,-284.4 -110.1,-452.5 0,-474.3 427.8,-858.7 955.5,-858.7"/>
  </g>
  <g transform="matrix(0.154784, 0, 0, -0.154784, -200.042336, 4257.476001)" id="g340">
    <path id="path342" style="fill:#ffffff;fill-opacity:1;fill-rule:nonzero;stroke:none" d="m 15253.1,12610.6 c -296.9,251.6 -557.8,-23.2 -492.4,-153.2 70.9,-140.8 333.9,-294.5 532.2,-599.8 486.6,-749 834,-627.7 870.3,-704.6 136.8,258.3 -406.4,1165 -406.4,1165 -50.7,-120.7 -206.7,40.9 -503.7,292.6"/>
  </g>
  <g transform="matrix(0.168861, 0, 0, -0.168861, -200.042336, 4257.476001)" id="g344">
    <path id="path346" style="fill:#303030;fill-opacity:1;fill-rule:nonzero;stroke:none" d="m 16085.9,10587.3 c -43.2,-83.7 -96.7,-154.4 -148.6,-210 -51.1,-56.5 -102.5,-95.2 -136.9,-125.3 -35.9,-27.6 -55.7,-46.6 -52,-53.8 3.6,-7.1 30.1,-0.7 74.3,17.7 42.4,21 103.3,53.7 164.9,109.1 62.2,54.2 126.6,128.4 178,218.9 51.8,90.2 89.9,195.8 110.9,304 20.3,108.4 23.5,218.3 18.3,320 -4.9,50.6 -7.7,99.8 -16.7,145.4 -3.8,22.9 -7.6,45.1 -11.3,66.6 -3.9,22.4 -9.9,43.4 -15.7,63 -23.6,78.6 -52.7,140.2 -77.4,181 -24.6,40.7 -44,60.6 -50.9,56.8 -15.2,-8 28.6,-104 57.9,-255.1 3.4,-18.9 7.1,-38.1 8.8,-58.1 2,-20.8 4.1,-42.3 6.1,-64.5 5.8,-44.1 5.8,-90.8 8.5,-138.9 1,-96.2 -4.1,-198.4 -22.7,-298 -19.3,-99.3 -52,-195.3 -95.5,-278.8"/>
  </g>
  <g transform="matrix(0.155781, 0, 0, -0.155781, -200.042336, 4257.476001)" id="g348">
    <path id="path350" style="fill:#303030;fill-opacity:1;fill-rule:nonzero;stroke:none" d="m 16172.3,12250.3 c -35.2,-1.8 -39.5,-231.7 -13.4,-459.8 12.8,-114 33.5,-227.4 57,-311 23.8,-83.6 50,-136.7 66.7,-132.8 17.4,4.1 17.1,61.9 10.9,146.4 -6,84.8 -17.8,196.9 -30.3,309.2 -25.9,224.6 -56.2,449.8 -90.9,448"/>
  </g>
  <g transform="matrix(0.159308, 0, 0, -0.159308, -200.042336, 4257.476001)" id="g352">
    <path id="path354" style="fill:#303030;fill-opacity:1;fill-rule:nonzero;stroke:none" d="m 16231.7,11095.5 c 68.3,1.6 48.4,885.1 -20,883.5 -68.4,-1.5 -48.4,-885 20,-883.5"/>
  </g>
  <g transform="matrix(0.162931, 0, 0, -0.162931, -200.042336, 4257.476001)" id="g356">
    <path id="path358" style="fill:#303030;fill-opacity:1;fill-rule:nonzero;stroke:none" d="m 16178.3,11283.2 c -10,-107.2 -20.9,-214 -26.3,-294.8 -5.6,-80.8 -6.3,-135.4 9.7,-139.6 16.3,-4.3 42,46.7 64.3,126.7 22.4,79.9 41.9,188.6 52.2,298.1 21.8,219.2 6.2,439.1 -26.6,439.1 -34.1,0.2 -51.8,-215.6 -73.3,-429.5"/>
  </g>
  <g transform="matrix(0.159124, 0, 0, -0.159124, -200.042336, 4257.476001)" id="g360">
    <path id="path362" style="fill:#ffffff;fill-opacity:1;fill-rule:nonzero;stroke:none" d="m 16077.2,13803.3 c -248.4,15.5 -250,-377.4 -266,-729.7 -23.3,-511 -24.2,-744.7 -24.2,-744.7 l 513,34.2 c 0,0 -1.1,296.9 -16.4,728.5 -10.5,292.8 -19.8,700.1 -206.4,711.7"/>
  </g>
  <g transform="matrix(0.163835, 0, 0, -0.163835, -200.042336, 4257.476001)" id="g368">
    <path id="path370" style="fill:#ffffff;fill-opacity:1;fill-rule:nonzero;stroke:none" d="m 15823.7,11915.7 476.3,53 c 0,0 -13.3,276.4 -45.7,677.6 -22,272.1 -47.7,651 -222,654.1 -232.2,4.1 -217.2,-361.8 -217.3,-690.4 -0.4,-476.7 8.7,-694.3 8.7,-694.3"/>
  </g>
  <g transform="matrix(0.164089, 0, 0, -0.164089, -200.042336, 4257.476001)" id="g372">
    <path id="path374" style="fill:#303030;fill-opacity:1;fill-rule:nonzero;stroke:none" d="m 16265.6,12835.1 c -8.3,80.9 -19.5,164.8 -40.8,250.3 -11.2,42.8 -24.4,86.1 -45.5,129.1 -10.5,21.5 -23.1,43 -39.9,63.5 -16.6,20.4 -37.9,40.2 -65.4,53.8 -26.9,13.8 -60.4,18.8 -88.1,16 -27.3,-2 -56.3,-9.7 -81.3,-24.4 -25.1,-14.4 -45.7,-34.3 -61.8,-55.2 -16.2,-21 -27.8,-43.3 -37.2,-65.3 -19,-44.3 -28.7,-88.3 -36.2,-131.2 -7.2,-42.9 -11.2,-84.9 -13.8,-126 -5.1,-82 -4.5,-160.3 -3.3,-234.2 1.5,-73.8 3.6,-142.8 5.6,-207 8.2,-256.4 24.1,-428.3 43.1,-427.2 14.1,0.9 23.2,170.9 31.6,427.2 2.2,63.9 3.7,133.8 5.4,206.8 1.8,73 3.9,149.7 10.7,227.5 3.4,38.8 8.1,77.8 15.4,116.1 7.2,38.1 16.7,76 31.4,108.9 14.2,33.5 34.5,59.9 58.1,73.3 11.7,7 25.2,10.4 40.2,11.5 14.7,1.2 24.9,-0.8 36.2,-6.2 22,-10.6 44.2,-38.4 60.4,-71.9 16.6,-33.3 29,-71.4 39.4,-109.8 20.4,-77.5 33,-157.9 43,-236.2 9.9,-78.3 17.3,-155.1 24.6,-228 7,-72.9 13.8,-141.8 20,-205.5 24.5,-254.6 40.8,-424.7 57.3,-424.4 16.7,0.4 25.3,172.1 17.2,429.2 -2,64.2 -5.1,133.8 -9.2,207.3 -4.2,73.5 -9,151.1 -17.1,232"/>
  </g>
  <g transform="matrix(0.168737, 0, 0, -0.168737, -200.042336, 4257.476001)" id="g376">
    <path id="path378" style="fill:#ffffff;fill-opacity:1;fill-rule:nonzero;stroke:none" d="m 15870.8,12018.2 c -66.2,-406.5 -88.8,-593.4 -88.8,-593.4 l 413.6,-20.5 c 0,0 5.1,231.7 33,578.4 19,235.2 71.4,567.7 -76.8,594.4 -197.3,35.5 -235.3,-278.6 -281,-558.9"/>
  </g>
  <g transform="matrix(0.16884, 0, 0, -0.16884, -200.042336, 4257.476001)" id="g380">
    <path id="path382" style="fill:#303030;fill-opacity:1;fill-rule:nonzero;stroke:none" d="m 16240.7,11511.5 c 0.5,7.3 1,14.7 1.6,22.1 8,118.9 14.9,256.3 27.5,403 6.1,73.1 14.6,149.2 20.4,228 5.5,78.7 9.8,159.6 2,243.7 -2,21 -5,42.3 -9.7,64 -4.8,21.6 -10.7,43.6 -20.7,65.9 -10.1,22.1 -24,45.2 -45.9,64.5 -21.6,19.5 -52.4,31.6 -79.4,33.9 -25.4,3.1 -53.4,0.1 -78.5,-9.3 -25.3,-9.3 -46.9,-24.4 -64.2,-41 -17.5,-16.7 -31.2,-34.9 -42.5,-53.2 -11.6,-18.4 -20.9,-36.9 -28.9,-55.4 -32,-74 -48,-146.2 -61.6,-214.2 -13.1,-68.1 -21.9,-132.3 -29.6,-191.4 -29.5,-235.9 -41,-394.2 -25.2,-396.6 16.2,-2.4 51.5,152.2 96.9,384.9 11.6,58 23.8,120.7 39.3,185.6 15.6,64.5 33.9,132.5 62.7,194 7.2,15.3 15.1,30.1 24,43.3 8.8,13.6 18.5,25.6 28.9,35 21.2,19 41.9,26.9 68.3,23.6 11.5,-1.5 18.8,-4.6 26.5,-11.4 7.6,-6.8 15,-17.8 21,-31.5 12.1,-27.9 18.8,-63.7 22.2,-100.2 7,-73.5 3.8,-151.3 -0.7,-227.8 -4.6,-76.7 -11.6,-153.1 -15.8,-227.9 -8.8,-149.2 -9.6,-288.6 -9.6,-406.9 0,-7.3 0,-14.6 0,-21.9 v -10.9 l 0.5,-13 c 1.1,-16.8 3.7,-31.5 6.4,-45.5 5.7,-27.9 12.4,-52.9 18.5,-76.2 12.5,-46.6 23.2,-86.5 30.7,-119.6 15.8,-65.9 18.6,-104.7 27.1,-105.5 7.5,-0.9 19.1,40.1 14.9,111.4 -1.8,35.5 -7.4,78.2 -14.9,125.8 -3.8,23.8 -7.9,49 -10.9,74.5 -1.5,12.7 -2.6,25.6 -2.4,37.1 l 0.3,8.4 0.8,10.7"/>
  </g>
  <g transform="matrix(0.154423, 0, 0, -0.154423, -200.042336, 4257.476001)" id="g384">
    <path id="path386" style="fill:#ffffff;fill-opacity:1;fill-rule:nonzero;stroke:none" d="m 15767.4,13984.4 c -253.7,-37.6 -171.3,-433.8 -112.1,-792.2 85.8,-519.9 156.2,-920.2 156.2,-920.2 l 488.5,308.7 c 0,0 -64.5,298.9 -172.3,730.6 -73.2,292.8 -169.7,701.3 -360.3,673.1"/>
  </g>
  <g transform="matrix(0.154177, 0, 0, -0.154177, -200.042336, 4257.476001)" id="g388">
    <path id="path390" style="fill:#303030;fill-opacity:1;fill-rule:nonzero;stroke:none" d="m 15688.7,13845.8 c 4.7,20 10.6,39.2 18.2,56.3 16.2,33.8 37.8,56.6 68.3,66.9 16.8,5.4 30.2,7.4 43.4,5.2 13.1,-2 26.8,-8.2 40.5,-18.3 27.8,-20.2 53,-53.9 74.3,-89.5 21.6,-35.8 39.6,-74.9 56.2,-114 32.9,-78.7 58.7,-158.9 81.8,-235.6 23.1,-76.7 43.2,-150.3 62.5,-218.4 77.2,-272.1 131.5,-452.1 147.5,-448.9 18.6,3.7 -10.2,191.6 -70.4,468.1 -14.9,69.1 -31.5,144.3 -51.8,223.7 -20.5,79.3 -44.4,162.9 -77.5,248.3 -16.8,42.6 -35.4,85.8 -60.1,128.4 -24.8,42.3 -53.5,85.8 -100.3,121.7 -23.3,17.5 -52.5,32.6 -85.5,38.1 -8.2,1.6 -16.5,2.6 -24.8,2.4 -8.4,0.4 -16.7,0.2 -24.8,-1.1 -8.3,-0.9 -16.4,-2.1 -23.4,-4.1 -7.4,-2 -14.6,-3.4 -21.9,-6.1 -29.2,-9.5 -57.2,-27.2 -79.4,-49 -22.3,-21.9 -38.7,-47.6 -50.8,-73.4 -23.3,-52.1 -32.1,-104.3 -36.4,-154.4 -4.5,-50.4 -3.6,-99.4 -0.9,-147.3 5.5,-95.8 19,-187.6 33.5,-275.6 29.6,-175.4 62.1,-336.6 90.5,-475.7 57.1,-277.5 102.3,-460.9 119.7,-457.5 17.3,3.4 -1.8,191.5 -41.4,471.3 -20.7,139.6 -44.7,302.5 -70.6,477 -12.1,86.7 -23.4,176.2 -27.5,265.8 -2,44.7 -2.2,89.5 1.8,132.7 1.7,21.7 5.2,42.6 9.3,63"/>
  </g>
  <g transform="matrix(0.153516, 0, 0, -0.153516, -200.042336, 4257.476001)" id="g392">
    <path id="path394" style="fill:#303030;fill-opacity:1;fill-rule:nonzero;stroke:none" d="m 15816.9,12439 c -3,0.3 -5.4,1.2 -8.3,2.6 -5.7,2.1 -15.9,7.6 -24.2,12.1 -17.7,10.9 -35.9,23.3 -54.2,37.8 -36.8,28.5 -74.2,61.2 -112.6,95.2 -38.5,34.4 -78,69.7 -118.4,105.8 -20.5,18 -41.2,36.3 -62,54.7 -10.7,9.2 -20.4,18.1 -32.2,27.7 -11.8,9.5 -23.3,19.5 -36.2,28.2 -49.9,36.1 -109.1,65.9 -175.7,78.2 -66.2,13 -139.4,5.1 -203.1,-24.9 -31.9,-15 -61.4,-35.1 -87.2,-59.8 -25.7,-24.7 -48.2,-53.7 -63.8,-88.5 -15.4,-34.3 -25.7,-75.9 -15.4,-121.5 2.2,-11.2 6.9,-22.4 11.8,-33 l 13.5,-23.3 c 4.4,-8.1 9.4,-14.8 14.5,-21.7 5,-6.8 9.9,-14.1 15.1,-20.4 41.7,-51.3 86.7,-93.2 130.4,-134.8 43.8,-41.3 87.2,-81.4 128.6,-122.3 82.6,-81.6 158,-166.3 220.1,-256 7.8,-11.3 15.6,-22.5 23.3,-33.6 8,-11.8 16,-23.4 23.9,-35 15.6,-23.4 31.9,-46 48.1,-68.3 32.2,-44.7 65.4,-87.3 98.8,-128 66.7,-81.5 136.1,-153.8 205.3,-215.2 69,-61.6 138.9,-111.3 204.5,-148.7 65.8,-37.5 127.5,-62.2 179.1,-77.7 51.5,-15.7 92.9,-22.8 118.5,-29.7 12.8,-3.5 22.1,-6.6 27.4,-9.8 5.9,-3.1 9.1,-5.8 11.2,-4.5 1.6,0.9 2.3,5.8 -1.8,13.3 -4.2,8 -13.9,16.2 -26.9,23.9 -26.1,15.5 -65.1,29.3 -112.1,50.5 -47.1,20.9 -102.3,49.4 -161.2,89.2 -58.9,39.7 -121.7,90.2 -184.4,152 -62.7,61.5 -126.4,133.2 -188.1,213.7 -30.9,40.3 -61.8,82.4 -91.8,126.5 -15.2,22 -30.4,44.3 -45.1,67.3 -7.5,11.5 -15,23 -22.4,34.5 -8,11.9 -16,23.9 -24,36 -64.4,97.2 -143.6,188.4 -228.5,273.9 -42.4,42.8 -86.4,84 -129.6,125 -42.9,41 -85.8,81.8 -119.9,124 -4.4,5.2 -7.9,10.6 -11.8,15.8 -3.8,5.3 -8,10.5 -10.6,15.8 l -9.2,15.6 c -1.1,3.3 -2.6,5.7 -3.2,9.4 -3.5,13.3 -0.6,33.7 8.5,53.6 18,40.5 56.3,76.4 99.1,97.1 43.5,20.7 92.7,27.1 140.5,18.5 47.9,-8.1 94.3,-29.6 136.1,-58.7 10.7,-6.8 20.6,-15.2 30.7,-22.9 10.1,-7.7 21.1,-17.4 31.5,-26 21.1,-17.7 42.1,-35.3 62.8,-52.7 41.6,-35 82.2,-69.3 121.8,-102.6 40.1,-33.3 79.6,-65.5 120.9,-95 20.5,-14.8 42.3,-28.6 65.2,-41.3 12.6,-6.1 23,-11.6 39.1,-16.9 9,-4 19.2,-4.3 28.7,-5.9 4.7,-0.4 9.7,-1.9 14.3,-1.4 l 13.9,1.1 c 18.8,0.3 34.6,13.2 44.5,27.7 10,15.1 15.3,33.5 18,51.8 3.7,26.2 3.3,48.2 2.6,70.1 -2,43.4 -7.3,82.9 -13,119.8 -11.7,73.7 -26,136.5 -39,187.9 -26.2,102.7 -48,159.6 -56.5,157.6 -8.8,-2 -2.2,-62.1 10.7,-166.2 6.4,-52 14.5,-115.1 20.4,-187 2.8,-35.8 5.2,-74.1 4.6,-113 -0.4,-19.1 -1.7,-39.4 -5,-55.9 -1.5,-5.3 -4,-12.7 -10.6,-11.7"/>
  </g>
</svg>