<?xml version="1.0" encoding="utf-8"?>
<svg viewBox="412.592 2126.855 388.909 395.499" xmlns="http://www.w3.org/2000/svg">
  <path id="path222" style="fill:#a9bece;fill-opacity:1;fill-rule:nonzero;stroke:none" d="M 7345.21 13822.62 C 7410.8 13936.92 7459.01 14070.62 7485.62 14207.62 C 7511.27 14344.82 7515.4 14484.02 7508.78 14612.82 C 7502.65 14677.02 7499.14 14739.32 7487.77 14797.02 C 7482.85 14825.92 7478.04 14854.12 7473.39 14881.42 C 7468.44 14909.72 7460.8 14936.32 7453.56 14961.22 C 7446.87 14983.42 7439.8 15004.42 7432.55 15024.42 C 7430.76 15032.72 7428.78 15041.32 7426.95 15050.12 C 7423.17 15068.12 7418.67 15086.92 7412.27 15106.22 C 7389.1 15183.82 7351.25 15274.62 7280.8 15358.02 C 7244.6 15398.82 7199.15 15436.92 7143.75 15462.62 C 7088.68 15488.52 7023.82 15499.72 6961.9 15492.62 C 6950.76 15491.42 6939.67 15489.52 6928.65 15487.32 C 6928.41 15488.22 6928.22 15489.02 6927.98 15489.92 C 6924.23 15503.02 6918.98 15516.62 6913.76 15531.22 C 6907.24 15545.32 6901.12 15560.62 6892.32 15575.62 C 6876.01 15606.22 6852.34 15637.52 6821.65 15666.12 C 6790.89 15694.62 6751.5 15719.12 6707.22 15734.22 C 6662.83 15749.22 6615.17 15755.52 6567.38 15752.52 C 6519.43 15749.92 6469.43 15737.72 6424.24 15714.42 C 6410.46 15707.02 6397.61 15698.52 6385.21 15689.42 C 6373.48 15718.12 6357.48 15747.72 6336.58 15777.02 C 6311.38 15812.32 6276.86 15846.62 6233.59 15871.92 C 6190.64 15897.72 6139.64 15913.12 6088.63 15917.42 C 6038.04 15921.42 5985.03 15917.62 5934.01 15899.42 C 5883.14 15881.82 5837.01 15850.82 5801.23 15813.82 C 5792.7 15804.22 5783.06 15795.32 5775.83 15785.12 C 5768.52 15775.02 5761.25 15764.92 5754.01 15754.92 C 5746.98 15744.82 5741.81 15734.02 5735.78 15723.72 C 5729.97 15713.32 5724.04 15703.02 5719.93 15692.32 C 5719.18 15690.62 5718.61 15689.02 5717.89 15687.32 C 5691.29 15714.92 5657.83 15740.32 5617.84 15758.32 C 5568.04 15781.32 5510.65 15790.82 5452.67 15788.22 C 5394.55 15785.82 5330.53 15768.52 5277.96 15731.42 C 5224.93 15695.02 5184.68 15644.42 5155.78 15591.82 C 5126.17 15538.92 5108.33 15483.42 5094.53 15429.12 C 5091.34 15415.42 5088.18 15401.92 5085.01 15388.42 C 5082.72 15374.92 5080.42 15361.42 5078.16 15348.12 C 5073.04 15321.32 5071.09 15295.02 5068.07 15269.12 C 5064.58 15229.72 5062.63 15191.92 5061.7 15155.62 C 4999.09 15128.92 4924.6 15091.22 4842.85 15028.12 C 4793.91 14989.62 4741.67 14941.12 4697.94 14872.02 C 4676.22 14837.62 4657.12 14797.32 4646.19 14751.52 C 4640.83 14728.72 4636.77 14704.72 4636.05 14680.12 C 4635.8 14674.12 4635.21 14667.22 4635.35 14662.02 L 4635.7 14646.22 C 4635.96 14635.62 4636.23 14624.92 4636.5 14614.22 C 4639.77 14527.92 4652.04 14439.62 4672.96 14352.82 C 4693.49 14265.72 4725.78 14181.32 4762.97 14101.52 C 4839.76 13942.42 4944.78 13806.12 5051.21 13705.32 C 5157.32 13603.42 5262.83 13536.12 5337.99 13491.72 C 5365.48 13477.32 5388.99 13465.92 5408.45 13457.32 C 5403 13450.52 5397.78 13443.12 5392.91 13435.12 C 5383.46 13420.12 5376.57 13401.62 5372.51 13381.72 C 5369.54 13360.12 5369.5 13343.02 5372.13 13323.82 C 5374.12 13304.82 5380.06 13285.62 5387.53 13266.92 C 5395.93 13248.82 5406.09 13230.82 5418.9 13215.32 C 5444.01 13183.52 5475.68 13158.52 5509.19 13138.62 C 5576.63 13098.82 5651.5 13075.22 5728.41 13057.52 C 5882.71 13023.42 6047.46 13013.82 6210.87 13013.42 C 6374.27 13013.72 6539.01 13023.32 6693.32 13057.32 C 6770.23 13074.92 6845.1 13098.32 6912.57 13138.02 C 6946.11 13157.82 6977.88 13182.52 7003.08 13214.22 C 7016.01 13229.52 7026.19 13247.52 7034.74 13265.62 C 7042.38 13284.22 7048.35 13303.42 7050.54 13322.42 C 7052.07 13331.92 7052.61 13341.22 7052.53 13350.42 C 7053.07 13359.02 7051.85 13369.92 7050.54 13380.02 C 7046.91 13400.12 7039.98 13418.62 7030.72 13433.72 C 7024.33 13444.52 7017.2 13453.72 7009.86 13462.32 C 7044.64 13484.42 7082.12 13511.52 7119.84 13545.42 C 7198.5 13614.02 7280.11 13708.02 7345.21 13822.62" transform="matrix(0.133333, 0, 0, -0.133333, -200.042336, 4257.476001)"/>
  <path id="path224" style="fill:#ffffff;fill-opacity:1;fill-rule:nonzero;stroke:none" d="M 5374.35 13401.02 C 5374.35 13186.62 5730.97 13115.32 6170.9 13115.32 C 6610.83 13115.32 6967.46 13186.62 6967.46 13401.02 C 6967.46 13558.92 6610.83 13686.82 6170.9 13686.82 C 5730.97 13686.82 5374.35 13558.92 5374.35 13401.02" transform="matrix(0.133333, 0, 0, -0.133333, -200.042336, 4257.476001)"/>
  <path id="path226" style="fill:#b8c7e6;fill-opacity:1;fill-rule:nonzero;stroke:none" d="M 5449.55 13481.82 C 5449.55 13342.62 5774.62 13296.42 6175.64 13296.42 C 6576.65 13296.42 6901.72 13342.62 6901.72 13481.82 C 6901.72 13584.22 6576.65 13667.32 6175.64 13667.32 C 5774.62 13667.32 5449.55 13584.22 5449.55 13481.82" transform="matrix(0.133333, 0, 0, -0.133333, -200.042336, 4257.476001)"/>
  <path id="path228" style="fill:#303030;fill-opacity:1;fill-rule:nonzero;stroke:none" d="M 5463.8 13506.12 C 5495 13536.22 5530.83 13557.72 5559.77 13575.22 C 5618.78 13609.82 5655.83 13627.92 5652.48 13638.32 C 5649.71 13647.32 5607.75 13646.72 5537.81 13624.12 C 5503.1 13612.12 5460.7 13596.22 5416.11 13563.62 C 5394.06 13547.12 5370.81 13526.52 5352.35 13495.92 C 5342.91 13480.92 5336.01 13462.42 5331.96 13442.52 C 5328.98 13421.02 5328.94 13403.92 5331.58 13384.72 C 5333.55 13365.62 5339.51 13346.52 5346.99 13327.82 C 5355.37 13309.62 5365.53 13291.62 5378.34 13276.12 C 5403.45 13244.32 5435.12 13219.32 5468.64 13199.52 C 5536.07 13159.62 5610.93 13136.12 5687.87 13118.42 C 5842.16 13084.22 6006.9 13074.62 6170.31 13074.32 C 6333.72 13074.62 6498.45 13084.12 6652.75 13118.12 C 6729.68 13135.82 6804.55 13159.22 6872.02 13198.82 C 6905.54 13218.72 6937.32 13243.32 6962.53 13275.02 C 6975.44 13290.42 6985.64 13308.42 6994.19 13326.42 C 7001.82 13345.12 7007.81 13364.22 7009.98 13383.22 C 7011.51 13392.72 7012.07 13402.12 7011.97 13411.32 C 7012.51 13419.92 7011.28 13430.72 7010 13440.92 C 7006.36 13460.92 6999.41 13479.42 6990.16 13494.62 C 6971.89 13525.42 6948.71 13546.22 6926.69 13562.72 C 6882.16 13595.52 6839.81 13611.62 6805.09 13623.62 C 6735.17 13646.32 6693.21 13646.92 6690.43 13637.92 C 6687.07 13627.52 6724.11 13609.42 6783.05 13574.72 C 6811.97 13557.22 6847.71 13535.62 6878.78 13505.42 C 6894.18 13490.52 6908.26 13473.32 6916.07 13455.42 C 6924.47 13437.12 6924.31 13422.92 6919.37 13398.72 C 6910.6 13355.82 6874.53 13318.32 6820.31 13290.62 C 6766.59 13262.82 6699.86 13244.12 6629.35 13230.62 C 6487.41 13204.22 6328.73 13197.02 6170.33 13196.82 C 6011.94 13197.02 5853.27 13204.42 5711.36 13230.82 C 5640.88 13244.42 5574.21 13263.12 5520.6 13291.12 C 5466.62 13319.02 5430.72 13356.42 5422.28 13399.62 C 5419.48 13410.12 5419.06 13422.82 5419.04 13430.02 C 5420.13 13438.52 5421.66 13447.32 5426.12 13456.22 C 5434.09 13474.02 5448.32 13491.22 5463.8 13506.12" transform="matrix(0.133333, 0, 0, -0.133333, -200.042336, 4257.476001)"/>
  <path id="path230" style="fill:#ffffff;fill-opacity:1;fill-rule:nonzero;stroke:none" d="M 4670.78 14705.32 C 4670.78 14360.92 4801.52 13911.72 5421.14 13534.12 L 5273.33 15242.62 C 5273.33 15242.62 4670.78 15049.62 4670.78 14705.32" transform="matrix(0.133333, 0, 0, -0.133333, -200.042336, 4257.476001)"/>
  <path id="path232" style="fill:#303030;fill-opacity:1;fill-rule:nonzero;stroke:none" d="M 4752.91 14777.12 C 4758.94 14804.72 4770.38 14831.02 4784.92 14855.52 C 4813.72 14904.62 4852.99 14946.32 4892.13 14981.32 C 4971.19 15051.52 5047.92 15098.42 5106.69 15135.52 C 5226.3 15208.22 5280.23 15242.32 5273.33 15262.92 C 5270.16 15272.92 5251.77 15277.72 5216.52 15274.12 C 5181.28 15270.42 5129.08 15258.52 5059.19 15232.12 C 4989.82 15204.82 4901.25 15165.32 4802.29 15089.02 C 4753.35 15050.52 4701.11 15001.92 4657.39 14932.82 C 4635.66 14898.42 4616.57 14858.12 4605.62 14812.32 C 4600.28 14789.52 4596.21 14765.62 4595.48 14740.92 C 4595.25 14735.02 4594.64 14728.02 4594.78 14722.82 L 4595.14 14707.12 C 4595.41 14696.52 4595.67 14685.82 4595.93 14675.02 C 4599.21 14588.82 4611.48 14500.42 4632.41 14413.62 C 4652.92 14326.52 4685.23 14242.22 4722.42 14162.32 C 4799.2 14003.22 4904.22 13866.92 5010.66 13766.12 C 5116.75 13664.32 5222.28 13596.92 5297.44 13552.52 C 5375.31 13511.92 5423.13 13493.12 5428.5 13502.02 C 5434.02 13511.12 5396.85 13546.92 5331.49 13601.02 C 5268.9 13658.82 5177.98 13736.02 5088.67 13840.22 C 4998.8 13943.72 4912.57 14074.32 4850.23 14220.12 C 4820.25 14293.32 4793.98 14369.42 4777.63 14447.52 C 4760.89 14525.32 4750.98 14604.02 4748.05 14680.62 C 4747.8 14690.22 4747.54 14699.72 4747.3 14709.12 L 4746.89 14723.22 C 4746.75 14727.82 4747.27 14730.82 4747.38 14734.62 C 4747.55 14749.12 4749.98 14763.32 4752.91 14777.12" transform="matrix(0.133333, 0, 0, -0.133333, -200.042336, 4257.476001)"/>
  <path id="path234" style="fill:#ffffff;fill-opacity:1;fill-rule:nonzero;stroke:none" d="M 6912.07 15470.62 C 6713.49 15438.32 6579.19 15248.42 6653.55 14792.12 L 7372.63 14909.22 C 7298.28 15365.62 7110.64 15503.02 6912.07 15470.62" transform="matrix(0.133333, 0, 0, -0.133333, -200.042336, 4257.476001)"/>
  <path id="path236" style="fill:#303030;fill-opacity:1;fill-rule:nonzero;stroke:none" d="M 7386.39 15110.92 C 7382.61 15128.92 7378.1 15147.72 7371.71 15167.12 C 7348.53 15244.62 7310.7 15335.42 7240.25 15418.92 C 7204.04 15459.62 7158.59 15497.82 7103.18 15523.42 C 7048.12 15549.42 6983.27 15560.52 6921.34 15553.42 C 6860.46 15546.82 6800.58 15525.82 6749.84 15489.42 C 6699.1 15453.32 6661.75 15403.42 6637.92 15353.32 C 6613.74 15302.92 6600.29 15251.82 6594.1 15204.22 C 6592.53 15192.32 6590.54 15180.62 6589.55 15169.02 C 6588.92 15157.52 6588.33 15146.22 6587.73 15135.12 C 6586.05 15112.82 6586.91 15091.52 6587.66 15071.22 C 6588.05 15061.02 6588.43 15051.12 6588.8 15041.42 C 6589.84 15031.72 6590.85 15022.42 6591.83 15013.22 C 6594.06 14995.02 6595.6 14977.62 6598.55 14961.62 C 6604.87 14929.72 6610.03 14901.92 6617.08 14879.62 C 6631.05 14834.92 6643.47 14810.72 6653.55 14812.32 C 6663.63 14814.02 6668.9 14841.02 6670.32 14886.12 C 6670.95 14908.62 6672.92 14935.82 6673.07 14966.62 C 6673.36 14982.02 6674.92 14998.32 6675.6 15015.42 C 6675.98 15023.92 6676.38 15032.72 6676.78 15041.72 C 6677.69 15050.52 6678.61 15059.62 6679.56 15068.82 C 6681.31 15087.32 6682.75 15106.52 6686.4 15125.72 C 6687.89 15135.42 6689.41 15145.32 6690.95 15155.32 C 6692.78 15165.22 6695.46 15174.92 6697.63 15184.92 C 6706.25 15224.92 6720.38 15264.72 6740.13 15300.82 C 6759.79 15336.92 6786.1 15368.42 6819.23 15390.72 C 6851.89 15413.02 6892.8 15427.02 6934.57 15431.62 C 6975.48 15436.12 7016.21 15429.72 7053.74 15413.42 C 7091.32 15397.22 7125.56 15371.42 7155.48 15341.32 C 7214.15 15278.92 7255.41 15202.92 7285.46 15135.32 C 7293.61 15118.62 7300.24 15101.92 7306.4 15086.02 C 7312.55 15070.02 7319.43 15055.12 7324.53 15040.62 C 7334.57 15011.52 7345.27 14986.42 7353.02 14965.32 C 7368.75 14923.12 7382.36 14899.22 7392.44 14900.82 C 7402.51 14902.42 7406.56 14929.42 7405.52 14976.22 C 7405.13 14999.62 7400.99 15027.62 7396.68 15059.92 C 7394.46 15076.02 7390.15 15092.92 7386.39 15110.92" transform="matrix(0.133333, 0, 0, -0.133333, -200.042336, 4257.476001)"/>
  <path id="path238" style="fill:#ffffff;fill-opacity:1;fill-rule:nonzero;stroke:none" d="M 6190.17 15105.92 C 6190.17 14759.02 6353.26 14477.72 6554.45 14477.72 C 6755.64 14477.72 6918.73 14759.02 6918.73 15105.92 C 6918.73 15568.32 6755.64 15734.12 6554.45 15734.12 C 6353.26 15734.12 6190.17 15568.32 6190.17 15105.92" transform="matrix(0.133333, 0, 0, -0.133333, -200.042336, 4257.476001)"/>
  <path id="path240" style="fill:#303030;fill-opacity:1;fill-rule:nonzero;stroke:none" d="M 6887.43 15550.82 C 6883.67 15563.82 6878.42 15577.42 6873.2 15592.02 C 6866.69 15606.12 6860.56 15621.42 6851.76 15636.42 C 6835.44 15667.02 6811.77 15698.32 6781.09 15726.92 C 6750.33 15755.42 6710.95 15780.02 6666.67 15795.02 C 6622.26 15810.12 6574.62 15816.32 6526.82 15813.32 C 6478.87 15810.72 6428.87 15798.52 6383.69 15775.22 C 6338.69 15751.32 6300.9 15716.92 6271.03 15679.72 C 6264.06 15670.12 6257.12 15660.52 6250.21 15651.02 C 6243.49 15641.42 6238.54 15631.12 6232.77 15621.32 C 6220.8 15601.72 6213.02 15581.22 6204.46 15561.42 C 6172.79 15481.22 6162.48 15404.42 6158.14 15339.72 C 6151.63 15209.72 6171.13 15126.12 6190.17 15126.22 C 6211.84 15126.02 6223.55 15209.42 6249.17 15326.92 C 6262.73 15385.12 6279.78 15452.72 6309.98 15515.92 C 6317.96 15531.22 6325.03 15547.62 6334.94 15561.82 C 6339.7 15568.92 6343.75 15576.92 6349 15583.62 L 6364.8 15603.82 C 6386.95 15629.42 6412.06 15651.32 6440.66 15666.72 C 6469.57 15681.42 6501.54 15689.92 6535.04 15692.92 C 6568.75 15696.32 6602.5 15693.32 6632.42 15685.32 C 6692.87 15669.62 6740.62 15629.72 6774.9 15586.02 C 6783.83 15575.42 6791.01 15563.82 6798.82 15553.42 C 6805.82 15542.22 6812.44 15531.62 6818.67 15521.62 C 6824.45 15511.22 6830.09 15501.42 6835.54 15492.42 C 6840.37 15483.02 6845.05 15474.42 6849.56 15466.62 C 6866.92 15435.42 6879.86 15417.02 6890.1 15419.42 C 6899.75 15421.62 6904.29 15444.02 6900.82 15482.42 C 6899.77 15491.92 6898.32 15502.52 6896.45 15514.02 C 6893.9 15525.32 6890.89 15537.62 6887.43 15550.82" transform="matrix(0.133333, 0, 0, -0.133333, -200.042336, 4257.476001)"/>
  <path id="path242" style="fill:#ffffff;fill-opacity:1;fill-rule:nonzero;stroke:none" d="M 5652.69 15270.72 C 5652.69 14923.82 5815.79 14642.62 6016.97 14642.62 C 6218.16 14642.62 6381.25 14923.82 6381.25 15270.72 C 6381.25 15733.12 6218.16 15898.92 6016.97 15898.92 C 5815.79 15898.92 5652.69 15733.12 5652.69 15270.72" transform="matrix(0.133333, 0, 0, -0.133333, -200.042336, 4257.476001)"/>
  <path id="path244" style="fill:#303030;fill-opacity:1;fill-rule:nonzero;stroke:none" d="M 6193.04 15932.82 C 6150.08 15958.52 6099.08 15974.02 6048.08 15978.22 C 5997.49 15982.22 5944.49 15978.42 5893.45 15960.22 C 5842.57 15942.62 5796.44 15911.72 5760.68 15874.62 C 5752.14 15865.02 5742.5 15856.12 5735.28 15845.92 C 5727.96 15835.82 5720.69 15825.72 5713.45 15815.72 C 5706.42 15805.62 5701.25 15794.82 5695.23 15784.52 C 5689.41 15774.12 5683.49 15763.82 5679.37 15753.12 C 5641.57 15668.72 5628.38 15586.92 5622.42 15518.12 C 5613.71 15379.92 5633.76 15290.92 5652.69 15291.02 C 5674.45 15290.92 5685.7 15379.72 5713.31 15504.32 C 5728.29 15566.02 5748.06 15637.22 5782.44 15702.32 C 5816.25 15767.92 5868.2 15821.72 5933.55 15844.42 C 5965.93 15856.32 6002.98 15859.62 6038.9 15857.92 C 6074.62 15856.02 6107.91 15847.42 6137.2 15832.32 C 6196.38 15802.92 6238.64 15747.32 6267.96 15694.52 C 6297.56 15641.22 6315.84 15590.72 6331.21 15555.72 C 6345.48 15520.22 6357.58 15499.72 6367.81 15501.22 C 6377.8 15502.52 6383.42 15525.82 6383.76 15566.32 C 6382.83 15606.72 6376.46 15664.72 6351.62 15732.62 C 6339.73 15766.52 6321.25 15802.42 6296.01 15837.82 C 6270.82 15873.22 6236.3 15907.42 6193.04 15932.82" transform="matrix(0.133333, 0, 0, -0.133333, -200.042336, 4257.476001)"/>
  <path id="path246" style="fill:#ffffff;fill-opacity:1;fill-rule:nonzero;stroke:none" d="M 5074.91 15144.42 C 5074.91 14797.42 5238 14516.22 5439.19 14516.22 C 5640.38 14516.22 5803.47 14797.42 5803.47 15144.42 C 5803.47 15606.72 5640.38 15772.62 5439.19 15772.62 C 5238 15772.62 5074.91 15606.72 5074.91 15144.42" transform="matrix(0.133333, 0, 0, -0.133333, -200.042336, 4257.476001)"/>
  <path id="path248" style="fill:#ffffff;fill-opacity:1;fill-rule:nonzero;stroke:none" d="M 6170.88 15468.32 C 5500.03 15468.32 4956.21 15195.92 4956.21 14376.72 C 4956.21 13773.82 5500.03 13285.12 6170.88 13285.12 C 6920.49 13285.12 7552.03 13847.02 7372.63 14909.22 C 7314.47 15253.62 6771.77 15468.32 6170.88 15468.32" transform="matrix(0.133333, 0, 0, -0.133333, -200.042336, 4257.476001)"/>
  <path id="path250" style="fill:#b8c7e6;fill-opacity:1;fill-rule:nonzero;stroke:none" d="M 5068.94 14786.02 L 5068.94 15111.32 C 4978.68 15044.82 4805.42 14828.82 5068.94 14786.02" transform="matrix(0.133333, 0, 0, -0.133333, -200.042336, 4257.476001)"/>
  <path id="path252" style="fill:#303030;fill-opacity:1;fill-rule:nonzero;stroke:none" d="M 5577.28 15819.12 C 5527.48 15842.12 5470.09 15851.72 5412.1 15849.02 C 5353.99 15846.62 5289.98 15829.42 5237.41 15792.22 C 5184.37 15755.92 5144.12 15705.22 5115.21 15652.62 C 5085.62 15599.82 5067.78 15544.22 5053.98 15489.92 C 5050.8 15476.32 5047.62 15462.72 5044.47 15449.22 C 5042.16 15435.72 5039.88 15422.32 5037.59 15408.92 C 5032.49 15382.12 5030.52 15355.82 5027.51 15329.92 C 5018.3 15225.72 5019.7 15132.22 5022.81 15051.12 C 5029.89 14889.42 5049.04 14782.92 5068.94 14783.32 C 5089.88 14783.72 5101.4 14890.72 5114.72 15049.22 C 5121.69 15128.02 5128.23 15221.52 5141.6 15316.22 C 5145.62 15339.82 5148.43 15364.22 5153.98 15387.92 C 5156.42 15399.92 5158.88 15411.92 5161.34 15424.02 C 5164.45 15435.72 5167.57 15447.62 5170.72 15459.42 C 5183.83 15506.42 5199.73 15553.22 5222.6 15593.52 C 5245 15634.22 5273.02 15669.02 5306.31 15693.22 C 5339.31 15717.92 5378.67 15730.22 5419.9 15734.32 C 5461.57 15738.52 5502.57 15734.42 5537.36 15721.62 C 5572.54 15709.32 5603.07 15689.32 5628.18 15665.52 C 5678.45 15617.22 5708.13 15559.72 5729.53 15520.02 C 5740.4 15500.02 5748.92 15483.82 5756.15 15472.92 C 5763.53 15462.12 5769.87 15456.72 5774.84 15457.92 C 5779.82 15459.02 5782.83 15466.52 5783.99 15480.02 C 5785.32 15493.42 5784.58 15512.72 5780.4 15536.92 C 5771.89 15584.82 5753.03 15655.72 5695.97 15727.62 C 5667.36 15762.92 5627.12 15796.72 5577.28 15819.12" transform="matrix(0.133333, 0, 0, -0.133333, -200.042336, 4257.476001)"/>
  <path id="path254" style="fill:#303030;fill-opacity:1;fill-rule:nonzero;stroke:none" d="M 7203.75 13938.42 C 7149.12 13832.42 7081.24 13742.92 7015.6 13672.52 C 6950.76 13600.82 6885.63 13551.92 6842.22 13513.72 C 6796.64 13478.72 6771.55 13454.82 6776.25 13445.62 C 6780.83 13436.62 6814.43 13444.72 6870.36 13468.12 C 6924.04 13494.62 7001.29 13536.12 7079.28 13606.22 C 7157.94 13674.92 7239.57 13768.82 7304.64 13883.52 C 7370.23 13997.72 7418.45 14131.52 7445.06 14268.42 C 7470.72 14405.72 7474.84 14544.92 7468.24 14673.72 C 7462.08 14737.82 7458.57 14800.12 7447.22 14857.82 C 7442.28 14886.82 7437.49 14914.92 7432.85 14942.22 C 7427.89 14970.52 7420.24 14997.22 7413 15022.02 C 7383.06 15121.62 7346.11 15199.62 7314.99 15251.22 C 7283.75 15302.72 7259.17 15327.92 7250.47 15323.22 C 7231.19 15313.02 7286.65 15191.42 7323.73 15000.12 C 7328.12 14976.12 7332.77 14951.82 7334.99 14926.52 C 7337.48 14900.12 7340.04 14872.92 7342.69 14844.82 C 7349.96 14788.92 7349.97 14729.82 7353.43 14668.92 C 7354.62 14547.12 7348.22 14417.72 7324.7 14291.52 C 7300.14 14165.72 7258.79 14044.22 7203.75 13938.42" transform="matrix(0.133333, 0, 0, -0.133333, -200.042336, 4257.476001)"/>
  <path id="path256" style="fill:#303030;fill-opacity:1;fill-rule:nonzero;stroke:none" d="M 5726.58 14842.72 C 5685.44 14840.62 5680.33 14572.02 5710.93 14305.52 C 5725.83 14172.32 5750.09 14039.82 5777.6 13942.22 C 5805.37 13844.42 5835.97 13782.42 5855.43 13787.02 C 5875.72 13791.82 5875.34 13859.32 5868.14 13958.12 C 5861.14 14057.12 5847.42 14188.02 5832.72 14319.32 C 5802.56 14581.82 5767.06 14844.82 5726.58 14842.72" transform="matrix(0.133333, 0, 0, -0.133333, -200.042336, 4257.476001)"/>
  <path id="path258" style="fill:#303030;fill-opacity:1;fill-rule:nonzero;stroke:none" d="M 6225.32 13787.02 C 6307.03 13788.92 6283.12 14844.52 6201.45 14842.72 C 6119.74 14840.82 6143.65 13785.22 6225.32 13787.02" transform="matrix(0.133333, 0, 0, -0.133333, -200.042336, 4257.476001)"/>
  <path id="path260" style="fill:#303030;fill-opacity:1;fill-rule:nonzero;stroke:none" d="M 6601.13 14317.92 C 6588.94 14186.92 6575.71 14056.42 6568.93 13957.72 C 6562.16 13858.92 6561.27 13792.22 6580.87 13787.02 C 6600.78 13781.72 6632.16 13844.12 6659.48 13941.82 C 6686.82 14039.52 6710.68 14172.42 6723.14 14306.12 C 6749.92 14573.92 6730.82 14842.72 6690.64 14842.72 C 6649.12 14842.92 6627.34 14579.32 6601.13 14317.92" transform="matrix(0.133333, 0, 0, -0.133333, -200.042336, 4257.476001)"/>
</svg>