<?xml version="1.0" encoding="utf-8"?>
<svg viewBox="1236.522 2042.229 388.901 550.793" xmlns="http://www.w3.org/2000/svg">
  <g transform="matrix(0.135411, 0, 0, -0.135411, -200.042336, 4257.476001)" id="g266">
    <path id="path268" style="fill:#a9bece;fill-opacity:1;fill-rule:nonzero;stroke:none" d="m 13317.1,13088.7 c 64.6,112.5 112.1,244.2 138.3,379.1 25.3,135.1 29.3,272.2 22.8,399 -6,63.2 -9.5,124.5 -20.6,181.4 -5,28.5 -9.6,56.2 -14.2,83 -4.9,27.9 -12.4,54.2 -19.5,78.6 -6.6,21.9 -13.6,42.6 -20.7,62.3 -1.8,8.2 -3.7,16.6 -5.6,25.2 -3.7,17.7 -8.1,36.3 -14.4,55.3 -22.8,76.4 -60.1,165.8 -129.5,248 -35.6,40.1 -80.3,77.7 -135,103 -54.1,25.5 -118,36.5 -179,29.5 -11.3,-1.3 -22.5,-3.2 -33.8,-5.4 -6.6,18.5 -14.6,38.1 -25.1,58.5 -15.6,30.5 -36.5,62.2 -63.9,92.7 -27.3,30.5 -62.7,58.7 -105,79.4 -42.1,21 -92.3,32.6 -141.8,31.6 -47.9,0.4 -98.8,-10.1 -144.9,-31.7 -25.3,-11.8 -48.7,-27 -70,-44.4 1.2,57.1 1.9,119.5 1.9,186.4 -0.1,83.1 -1.2,173.1 -3.7,268.2 -2.4,95.1 -5.7,195.7 -13.4,300.5 -8.1,104.8 -19.9,213.7 -47.1,325 -14.4,55.6 -31.9,112.1 -62.6,168 -15.8,27.7 -35,55.5 -61.6,80.3 -26.2,24.6 -61.8,45.3 -100.7,53 -9.7,2.4 -19.3,3.2 -28.9,3.8 -10,1 -18.9,0.6 -27.6,0 -17.6,-0.5 -36,-3.9 -53.6,-8.5 -35.7,-9.4 -69.3,-28.5 -95.5,-52.2 -53.1,-47.9 -81.3,-106.5 -102.3,-162 -39.8,-112.5 -52.6,-222.5 -62,-327.8 -8.7,-105.3 -11.3,-206.3 -12.7,-301.5 -1.3,-95 -2.2,-184.7 -1.7,-268 0.2,-60.1 1.2,-116.4 2.7,-168.7 -11.4,56.1 -24.4,116.9 -38.9,181.8 -19.2,84.6 -39.4,175.6 -63.4,272.8 -24.5,97 -52,199.6 -93.6,304.5 -21.3,52.4 -45.7,105.7 -82.2,157.5 -18.5,25.8 -40.1,51.6 -69.8,73.8 -29.1,22.2 -69.5,39.9 -112.2,40.5 -10.5,0.8 -20.8,-1 -31.1,-1.8 -10.1,-1.6 -19.7,-4.3 -29.5,-6.6 -17,-5.9 -33.5,-11.8 -49.7,-20.6 -32.3,-16.7 -61.8,-40.9 -84.7,-69.2 -46.6,-57.5 -65.3,-124.7 -76,-187.1 -9.5,-63 -10.4,-124.4 -7.5,-184.3 2.6,-59.9 9,-118.3 16.8,-175.7 15.7,-114.8 37,-224.6 56.7,-331.2 2.9,-14.1 4.4,-26.8 8.4,-42.1 3,-12.9 6.1,-25.8 9.1,-38.6 6,-25.8 11.9,-51.3 17.9,-76.5 11.4,-50.5 22.6,-100 33.4,-148.1 21.5,-96.4 40.9,-187.7 58.5,-271.9 3.8,-17.9 7.3,-35.3 10.8,-52.5 -16.7,-5.2 -34.6,-11.3 -54,-18.7 -68.6,-27 -156.1,-66.2 -253.8,-141.9 -24.4,-19 -49.1,-40.8 -73.4,-66.2 -24.4,-25.1 -48.1,-54.7 -69.3,-89 -21.1,-34.4 -40.1,-74.1 -50.3,-119.7 -5,-22.7 -8.7,-46.3 -9.3,-70.8 -1,-13 -0.1,-21.9 0,-32.8 0.3,-10.4 0.6,-21 0.8,-31.7 3.6,-85.3 16.2,-172.5 37.2,-258.2 20.4,-86 52.8,-169.2 89.5,-248 75.8,-157.1 179.2,-292 284.2,-392 104.6,-100.9 208.7,-167.9 283,-211.9 23.8,-12.4 44.4,-22.5 62.1,-30.7 -3.8,-5.1 -7.8,-10.4 -11.3,-16.3 -9.3,-14.8 -16.1,-33 -20.1,-52.6 -3,-21.2 -3,-38 -0.4,-56.9 2,-18.8 7.9,-37.6 15.2,-56 8.2,-17.9 18.3,-35.7 30.9,-50.9 24.7,-31.3 55.9,-55.9 88.9,-75.5 66.4,-39.2 140.1,-62.4 215.8,-79.8 152,-33.6 314.2,-43.1 475.1,-43.5 160.9,0.3 323.1,9.7 475,43.2 75.8,17.4 149.5,40.4 216,79.5 33,19.5 64.3,43.8 89.1,75 12.7,15.1 22.7,32.9 31.2,50.7 7.5,18.3 13.4,37.1 15.5,55.8 1.5,9.4 2,18.6 1.9,27.7 0.6,8.4 -0.6,19.1 -1.8,29.1 -3.7,19.7 -10.5,38 -19.6,52.9 -6.3,10.6 -13.3,19.7 -20.5,28.1 34.2,21.8 71.1,48.5 108.3,81.8 77.4,67.6 157.7,160.1 221.8,273"/>
  </g>
  <path id="path270" style="fill:#ffffff;fill-opacity:1;fill-rule:nonzero;stroke:none" d="m 11553.8,12871 c 0,-214.4 356.6,-285.7 796.5,-285.7 439.9,0 796.6,71.3 796.6,285.7 0,157.9 -356.7,285.8 -796.6,285.8 -439.9,0 -796.5,-127.9 -796.5,-285.8" transform="matrix(0.133333, 0, 0, -0.133333, -200.042336, 4257.476001)"/>
  <path id="path272" style="fill:#b8c7e6;fill-opacity:1;fill-rule:nonzero;stroke:none" d="m 11622.1,12951.8 c 0,-134.2 326.5,-178.8 729.4,-178.8 402.9,0 729.5,44.6 729.5,178.8 0,98.8 -326.6,178.9 -729.5,178.9 -402.9,0 -729.4,-80.1 -729.4,-178.9" transform="matrix(0.133333, 0, 0, -0.133333, -200.042336, 4257.476001)"/>
  <path id="path274" style="fill:#303030;fill-opacity:1;fill-rule:nonzero;stroke:none" d="m 11643.2,12976.1 c 31.2,30.1 67,51.6 96,69.1 59,34.6 96.1,52.7 92.7,63.1 -2.8,9 -44.7,8.4 -114.7,-14.2 -34.7,-12 -77.1,-27.9 -121.7,-60.5 -22,-16.5 -45.3,-37.1 -63.7,-67.7 -9.5,-15 -16.4,-33.5 -20.4,-53.4 -3,-21.5 -3.1,-38.6 -0.4,-57.8 2,-19.1 7.9,-38.2 15.4,-56.9 8.4,-18.2 18.5,-36.2 31.4,-51.7 25.1,-31.8 56.7,-56.8 90.2,-76.6 67.5,-39.9 142.4,-63.4 219.3,-81.1 154.3,-34.2 319,-43.8 482.4,-44.1 163.4,0.3 328.2,9.8 482.5,43.8 76.9,17.7 151.7,41.1 219.2,80.7 33.6,19.9 65.3,44.5 90.5,76.2 13,15.4 23.1,33.4 31.7,51.4 7.6,18.7 13.6,37.8 15.8,56.8 1.5,9.5 2.1,18.9 2,28.1 0.5,8.6 -0.7,19.4 -2,29.6 -3.6,20 -10.6,38.5 -19.8,53.7 -18.3,30.8 -41.5,51.6 -63.5,68.1 -44.5,32.8 -86.9,48.9 -121.6,60.9 -69.9,22.7 -111.9,23.3 -114.7,14.3 -3.3,-10.4 33.7,-28.5 92.7,-63.2 28.9,-17.5 64.6,-39.1 95.7,-69.3 15.4,-14.9 29.5,-32.1 37.3,-50 8.4,-18.3 8.2,-32.5 3.3,-56.7 -8.8,-42.9 -44.9,-80.4 -99.1,-108.1 -53.7,-27.8 -120.4,-46.5 -190.9,-60 -142,-26.4 -300.7,-33.6 -459.1,-33.8 -158.4,0.2 -317,7.6 -458.9,34 -70.5,13.6 -137.2,32.3 -190.8,60.3 -54,27.9 -89.9,65.3 -98.3,108.5 -2.8,10.5 -3.2,23.2 -3.2,30.4 1,8.5 2.6,17.3 7,26.2 8,17.8 22.2,35 37.7,49.9" transform="matrix(0.133333, 0, 0, -0.133333, -200.042336, 4257.476001)"/>
  <path id="path276" style="fill:#ffffff;fill-opacity:1;fill-rule:nonzero;stroke:none" d="m 10850.2,14175.3 c 0,-344.4 130.7,-793.6 750.3,-1171.2 l -147.7,1708.5 c 0,0 -602.6,-193 -602.6,-537.3" transform="matrix(0.133333, 0, 0, -0.133333, -200.042336, 4257.476001)"/>
  <path id="path278" style="fill:#303030;fill-opacity:1;fill-rule:nonzero;stroke:none" d="m 10931.7,14244.8 c 5.7,27.8 17.4,54.1 31.5,78.7 28.4,49.4 67.8,91.4 106.9,126.6 79.3,70.6 156.2,117.8 215.3,155.1 120.1,73 174.2,107.1 167.3,127.7 -3.1,10 -21.6,14.8 -57,11.1 -35.3,-3.7 -87.7,-15.7 -157.9,-42.3 -69.6,-27.4 -158.5,-67.3 -257.8,-144.1 -24.7,-19.3 -49.8,-41.4 -74.4,-67.2 -24.9,-25.5 -48.8,-55.6 -70.5,-90.4 -21.3,-34.9 -40.6,-75.3 -51.1,-121.5 -5,-23.1 -8.7,-47.1 -9.3,-71.9 -1,-13.3 -0.1,-22.3 0,-33.3 0.2,-10.7 0.5,-21.4 0.8,-32.2 3.6,-86.7 16.4,-175.3 37.8,-262.3 20.6,-87.3 53.5,-171.8 90.8,-251.9 77.1,-159.5 182.1,-296.5 288.6,-398.1 106.3,-102.5 212,-170.5 287.5,-215.1 78.1,-41 126.1,-59.8 131.5,-50.9 5.5,9.1 -31.9,44.9 -97.4,99.3 -62.9,58 -153.9,135.8 -243.4,240.6 -89.9,104.2 -176.3,235.6 -239,382.1 -30.2,73.6 -57.1,150 -73.5,228.4 -17.2,78.2 -27.6,157.1 -30.8,234 -0.3,9.7 -0.5,19.2 -0.8,28.6 -0.1,9 -1,19.9 -0.2,26.3 0.2,14.6 2.4,28.7 5.1,42.7" transform="matrix(0.133333, 0, 0, -0.133333, -200.042336, 4257.476001)"/>
  <path id="path280" style="fill:#ffffff;fill-opacity:1;fill-rule:nonzero;stroke:none" d="m 13091.5,14940.6 c -198.6,-32.3 -332.9,-222.2 -258.5,-678.5 l 719,117.1 c -74.3,456.4 -262,593.8 -460.5,561.4" transform="matrix(0.133333, 0, 0, -0.133333, -200.042336, 4257.476001)"/>
  <path id="path282" style="fill:#303030;fill-opacity:1;fill-rule:nonzero;stroke:none" d="m 13565.8,14580.9 c -3.8,18 -8.3,36.8 -14.7,56.2 -23.2,77.5 -61,168.3 -131.5,251.8 -36.2,40.7 -81.6,78.9 -137,104.5 -55.1,26 -119.9,37.1 -181.8,30 -60.9,-6.6 -120.8,-27.6 -171.6,-64 -50.7,-36.1 -88,-86 -111.9,-136.1 -24.2,-50.4 -37.6,-101.5 -43.8,-149.1 -1.6,-11.9 -3.6,-23.6 -4.6,-35.2 -0.6,-11.5 -1.2,-22.8 -1.8,-33.9 -1.7,-22.3 -0.8,-43.6 0,-63.9 0.4,-10.2 0.7,-20.1 1.1,-29.8 1,-9.7 2.1,-19 3.1,-28.2 2.2,-18.2 3.7,-35.6 6.7,-51.6 6.3,-31.9 11.4,-59.7 18.5,-82 14,-44.7 26.4,-68.9 36.5,-67.3 10,1.7 15.3,28.7 16.7,73.8 0.7,22.5 2.6,49.7 2.8,80.5 0.3,15.4 1.8,31.7 2.5,48.8 0.4,8.5 0.8,17.3 1.2,26.3 0.9,8.8 1.8,17.9 2.8,27.1 1.7,18.5 3.1,37.7 6.8,56.9 1.5,9.7 3,19.6 4.6,29.6 1.8,9.9 4.5,19.6 6.6,29.6 8.7,40 22.8,79.8 42.5,115.9 19.7,36.1 46,67.6 79.1,89.9 32.7,22.3 73.6,36.3 115.4,40.9 40.9,4.5 81.6,-1.9 119.1,-18.2 37.6,-16.2 71.9,-42 101.8,-72.1 58.7,-62.4 99.9,-138.4 130,-206 8.1,-16.7 14.7,-33.4 20.9,-49.3 6.2,-16 13,-30.9 18.1,-45.4 10.1,-29.1 20.8,-54.2 28.5,-75.3 15.8,-42.2 29.4,-66.1 39.4,-64.5 10.1,1.6 14.2,28.6 13.1,75.4 -0.3,23.4 -4.5,51.4 -8.8,83.7 -2.2,16.1 -6.5,33 -10.3,51" transform="matrix(0.133333, 0, 0, -0.133333, -200.042336, 4257.476001)"/>
  <path id="path284" style="fill:#ffffff;fill-opacity:1;fill-rule:nonzero;stroke:none" d="m 12369.6,14575.9 c 0,-346.9 163.1,-628.2 364.3,-628.2 201.1,0 364.2,281.3 364.2,628.2 0,462.4 -163.1,628.2 -364.2,628.2 -201.2,0 -364.3,-165.8 -364.3,-628.2" transform="matrix(0.133333, 0, 0, -0.133333, -200.042336, 4257.476001)"/>
  <path id="path286" style="fill:#303030;fill-opacity:1;fill-rule:nonzero;stroke:none" d="m 12976,15171.6 c -27.8,30.9 -63.7,59.6 -106.6,80.6 -42.7,21.3 -93.8,33.1 -144.1,32.1 -48.6,0.4 -100.3,-10.3 -147,-32.2 -46.8,-21.8 -88.1,-54.7 -119.7,-92.3 -7.9,-9.3 -14.5,-19.4 -21.7,-29 l -10.4,-14.6 -8.6,-15.2 c -5.7,-10.2 -11.3,-20.2 -16.8,-30.2 -4.5,-10.3 -8.9,-20.6 -13.2,-30.7 -33.7,-81.5 -44.9,-160 -49.8,-226 -7.2,-132.7 12.5,-218 31.5,-217.9 21.7,-0.2 33.2,85 59.5,204.8 14,59.3 32,128 63.5,191.9 4,7.9 7.9,15.9 12,23.9 4.6,7.4 9.3,14.8 14.1,22.3 l 6.9,11.3 8.1,10.3 c 5.5,6.6 10.5,13.9 16.3,20.3 23,25.6 50,45.8 79.9,59.9 29.9,14 63.1,22.1 98,22.8 33.1,1.6 64.5,-4 94,-16.1 59.4,-23.7 106.2,-72 140.6,-118.1 34.4,-46.9 57.8,-92.3 75.2,-124.3 17.6,-32 30.6,-50.7 40.9,-48.4 9.6,2.2 14.1,25.1 10.3,64.1 -3.6,39 -16.4,94.3 -47.9,156.5 -16,30.9 -37.2,63.2 -65,94.2" transform="matrix(0.133333, 0, 0, -0.133333, -200.042336, 4257.476001)"/>
  <g transform="matrix(0.1336, 0, 0, -0.1336, -200.042336, 4257.476001)" id="g288">
    <path id="path290" style="fill:#ffffff;fill-opacity:1;fill-rule:nonzero;stroke:none" d="m 11293.8,16232.7 c -272.2,-85.5 -170,-545 -101.9,-943 98.6,-577.3 167.7,-1117.3 167.7,-1117.3 l 564.6,499.4 c 0,0 -122.2,364.4 -244.8,843.5 -83.1,325 -171.5,784.7 -385.6,717.4"/>
  </g>
  <g transform="matrix(0.135329, 0, 0, -0.135329, -200.042336, 4257.476001)" id="g292">
    <path id="path294" style="fill:#ffffff;fill-opacity:1;fill-rule:nonzero;stroke:none" d="m 12005.3,16285.2 c -292.4,14.8 -288.7,-447 -302.7,-861.3 -20.3,-600.9 -18.1,-875.6 -18.1,-875.6 l 602.6,47.1 c 0,0 -5.3,348.9 -29.3,856.1 -16.4,344 -32.9,822.6 -252.5,833.7"/>
  </g>
  <path id="path296" style="fill:#ffffff;fill-opacity:1;fill-rule:nonzero;stroke:none" d="m 12350.3,14938.3 c -670.9,0 -1214.7,-272.4 -1214.7,-1091.6 0,-602.9 543.8,-1091.6 1214.7,-1091.6 749.6,0 1381.1,561.9 1201.7,1624.1 -58.1,344.4 -600.8,559.1 -1201.7,559.1" transform="matrix(0.133333, 0, 0, -0.133333, -200.042336, 4257.476001)"/>
  <path id="path298" style="fill:#303030;fill-opacity:1;fill-rule:nonzero;stroke:none" d="m 13383.2,13408.4 c -54.7,-106 -122.6,-195.5 -188.2,-265.9 -64.8,-71.7 -130,-120.6 -173.4,-158.8 -45.5,-35 -70.6,-58.9 -66,-68.1 4.6,-9 38.2,-0.9 94.2,22.5 53.7,26.5 130.9,68 208.9,138.1 78.7,68.7 160.3,162.6 225.4,277.3 65.5,114.2 113.8,248 140.4,384.9 25.6,137.3 29.7,276.5 23.1,405.3 -6.1,64.1 -9.6,126.4 -21,184.1 -4.9,29 -9.7,57.1 -14.3,84.4 -5,28.3 -12.7,55 -19.9,79.8 -29.9,99.6 -66.9,177.6 -98,229.2 -31.3,51.5 -55.8,76.7 -64.5,72 -19.3,-10.2 36.2,-131.8 73.2,-323.1 4.4,-24 9.1,-48.3 11.3,-73.6 2.5,-26.4 5.1,-53.6 7.7,-81.7 7.3,-55.9 7.3,-115 10.7,-175.9 1.2,-121.8 -5.2,-251.2 -28.7,-377.4 -24.5,-125.8 -65.9,-247.3 -120.9,-353.1" transform="matrix(0.133333, 0, 0, -0.133333, -200.042336, 4257.476001)"/>
  <path id="path300" style="fill:#303030;fill-opacity:1;fill-rule:nonzero;stroke:none" d="m 11906,14312.7 c -41.1,-2.1 -46.3,-270.7 -15.6,-537.2 14.9,-133.2 39.1,-265.7 66.6,-363.3 27.8,-97.8 58.4,-159.8 77.8,-155.2 20.3,4.8 19.9,72.3 12.8,171.1 -7.1,99 -20.8,229.9 -35.5,361.2 -30.1,262.5 -65.6,525.5 -106.1,523.4" transform="matrix(0.133333, 0, 0, -0.133333, -200.042336, 4257.476001)"/>
  <path id="path302" style="fill:#303030;fill-opacity:1;fill-rule:nonzero;stroke:none" d="m 12404.7,13257 c 81.7,1.9 57.8,1057.5 -23.8,1055.7 -81.7,-1.9 -57.9,-1057.5 23.8,-1055.7" transform="matrix(0.133333, 0, 0, -0.133333, -200.042336, 4257.476001)"/>
  <path id="path304" style="fill:#303030;fill-opacity:1;fill-rule:nonzero;stroke:none" d="m 12780.5,13787.9 c -12.2,-131 -25.4,-261.5 -32.2,-360.2 -6.7,-98.8 -7.6,-165.5 12,-170.7 19.9,-5.3 51.3,57.1 78.6,154.8 27.3,97.7 51.2,230.6 63.6,364.3 26.8,267.8 7.7,536.6 -32.4,536.6 -41.6,0.2 -63.4,-263.4 -89.6,-524.8" transform="matrix(0.133333, 0, 0, -0.133333, -200.042336, 4257.476001)"/>
  <path id="path306" style="fill:#b8c7e6;fill-opacity:1;fill-rule:nonzero;stroke:none" d="m 11390,14202.3 -54.6,427.3 c -90.3,-66.5 -432.3,-296.9 54.6,-427.3" transform="matrix(0.133333, 0, 0, -0.133333, -200.042336, 4257.476001)"/>
  <g transform="matrix(0.133764, 0, 0, -0.133764, -200.042336, 4257.476001)" id="g308">
    <path id="path310" style="fill:#303030;fill-opacity:1;fill-rule:nonzero;stroke:none" d="m 11221.2,16123.2 c 13.3,16.6 29.1,29.6 47.6,39.5 9,5.2 19.5,8.9 29.5,12.6 4.1,0.7 8.3,2.2 12.2,2.9 3.9,-0.1 7.8,1.4 11.5,0.8 14.3,-0.2 28.8,-5.2 44.9,-16.7 15.9,-11.4 31.6,-28.5 45.9,-47.9 28.7,-39.1 52.3,-86.4 72.9,-134.2 40.9,-96.3 71.2,-196.5 99.1,-291.7 27.2,-96.3 53,-187.3 76.7,-271.4 96.3,-336.4 161.2,-560.2 180.3,-556.2 20.7,4.2 -14.7,236.5 -91.5,578.7 -19.3,85.7 -39.8,177.8 -64.1,276.2 -24.8,98.2 -52.5,202 -94.8,308.3 -21.5,53 -46.1,106.9 -83.2,159.4 -18.7,26.1 -40.6,52.2 -70.6,74.8 -29.5,22.4 -70.3,40.3 -113.5,41 -10.8,0.7 -21.1,-1.1 -31.6,-2 -10.2,-1.5 -20,-4.2 -29.8,-6.6 -17.3,-5.9 -34,-11.9 -50.4,-20.8 -32.7,-17 -62.6,-41.4 -85.7,-70.1 -47.2,-58.2 -66.2,-126.2 -76.8,-189.4 -9.7,-63.8 -10.6,-126 -7.8,-186.5 2.7,-60.7 9.2,-119.9 17,-177.9 16,-116.2 37.6,-227.4 57.5,-335.3 2.8,-14.3 4.5,-27.1 8.5,-42.6 3.1,-13.1 6.2,-26.1 9.3,-39.1 6,-26.1 12,-51.9 17.9,-77.4 11.6,-51.2 23,-101.3 34,-150 21.7,-97.5 41.4,-189.9 59.2,-275.2 35.3,-170.7 61.9,-313.3 78.6,-413.2 17,-99.8 23.8,-157.3 34.7,-157.8 9.4,-0.5 20.6,59 18.5,162.7 -1.7,103.5 -16,250.1 -41.6,424.2 -12.9,87.1 -28.4,181.1 -46.5,280.1 -9.2,49.6 -18.8,100.4 -29,152.3 -5.3,25.9 -10.6,52.1 -16,78.6 -2.8,13.2 -5.5,26.5 -8.3,39.8 -2.7,10.9 -4.3,25.2 -6.5,37.8 -17.4,107.7 -37,219 -51,330.7 -6.9,55.8 -12.6,111.9 -14.7,167.5 -2.4,55.5 -1,110.5 6.8,162.2 8.4,51.2 23.8,99.3 50.8,131.9"/>
  </g>
  <g transform="matrix(0.135908, 0, 0, -0.135908, -200.042336, 4257.476001)" id="g312">
    <path id="path314" style="fill:#303030;fill-opacity:1;fill-rule:nonzero;stroke:none" d="m 12208.1,15995 c -14.3,55.4 -31.7,111.7 -62.4,167.4 -15.6,27.6 -34.8,55.3 -61.3,80 -26.2,24.5 -61.6,45.1 -100.3,52.8 -9.7,2.4 -19.3,3.2 -28.9,3.8 -10,1 -18.8,0.6 -27.5,0 -17.6,-0.5 -35.7,-3.9 -53.4,-8.4 -35.5,-9.4 -69,-28.5 -95.1,-52.1 -52.9,-47.7 -81.1,-106.1 -102,-161.4 -39.6,-112 -52.4,-221.7 -61.8,-326.5 -8.6,-105 -11.2,-205.6 -12.7,-300.4 -1.2,-94.8 -2,-184.1 -1.6,-267.1 0.8,-165.6 6.6,-303.9 17,-400.6 9.8,-96.7 26.8,-152.4 37.7,-150 8.7,2 9.6,55.5 14.9,151.5 5,95.8 12.1,232.7 20.5,396.9 4.6,82.3 9.6,171.4 14.8,265.6 5.2,94.1 10.9,192.9 21.6,293.3 11.1,99.9 26.3,203.7 60.5,295.9 17.3,45.4 40.6,87.2 70.1,112.8 14.6,13 30.3,21.7 48.1,26.2 17.1,4.6 39.3,5.9 53.4,2.7 15.3,-3.1 29.4,-10.6 43.3,-23.4 13.9,-12.8 26.9,-30.4 38.3,-50.3 22.7,-40.4 39,-88.9 52.2,-138 25.5,-99.4 39,-203.4 49.1,-304.3 10.1,-101.1 16.4,-200 22.5,-294.3 6,-94.1 11.6,-183.1 16.8,-265.3 20.3,-328.8 32.9,-548.4 52.9,-548.6 20,-0.3 37.5,220.4 37.2,551.4 -0.1,82.8 -1.2,172.4 -3.6,267.2 -2.5,94.7 -5.6,195 -13.5,299.4 -8,104.4 -19.8,212.9 -46.8,323.8"/>
  </g>
</svg>